<?xml version="1.0" encoding="utf-8" standalone="no"?>
<!DOCTYPE svg PUBLIC "-//W3C//DTD SVG 1.1//EN"
  "http://www.w3.org/Graphics/SVG/1.1/DTD/svg11.dtd">
<svg xmlns:xlink="http://www.w3.org/1999/xlink" width="383.014288pt" height="301.6461pt" viewBox="0 0 383.014288 301.6461" xmlns="http://www.w3.org/2000/svg" version="1.1">
 <metadata>
  <rdf:RDF xmlns:dc="http://purl.org/dc/elements/1.1/" xmlns:cc="http://creativecommons.org/ns#" xmlns:rdf="http://www.w3.org/1999/02/22-rdf-syntax-ns#">
   <cc:Work>
    <dc:type rdf:resource="http://purl.org/dc/dcmitype/StillImage"/>
    <dc:date>2024-12-09T14:41:56.908928</dc:date>
    <dc:format>image/svg+xml</dc:format>
    <dc:creator>
     <cc:Agent>
      <dc:title>Matplotlib v3.7.1, https://matplotlib.org/</dc:title>
     </cc:Agent>
    </dc:creator>
   </cc:Work>
  </rdf:RDF>
 </metadata>
 <defs>
  <style type="text/css">*{stroke-linejoin: round; stroke-linecap: butt}</style>
 </defs>
 <g id="figure_1">
  <g id="patch_1">
   <path d="M 0 301.6461 
L 383.014288 301.6461 
L 383.014288 0 
L 0 0 
z
" style="fill: #ffffff"/>
  </g>
  <g id="axes_1">
   <g id="patch_2">
    <path d="M 68.254149 251.564405 
L 319.354149 251.564405 
L 319.354149 29.804405 
L 68.254149 29.804405 
z
" style="fill: #ffffff"/>
   </g>
   <g id="matplotlib.axis_1">
    <g id="xtick_1">
     <g id="line2d_1">
      <defs>
       <path id="m886fd6f568" d="M 0 0 
L 0 3.5 
" style="stroke: #000000; stroke-width: 0.8"/>
      </defs>
      <g>
       <use xlink:href="#m886fd6f568" x="68.254149" y="251.564405" style="stroke: #000000; stroke-width: 0.8"/>
      </g>
     </g>
     <g id="text_1">
      <!-- $\mathdefault{10^{2}}$ -->
      <g transform="translate(57.660627 269.633994) scale(0.16 -0.16)">
       <defs>
        <path id="CMR17-31" d="M 1702 4083 
C 1702 4217 1696 4224 1606 4224 
C 1357 3927 979 3833 621 3820 
C 602 3820 570 3820 563 3808 
C 557 3795 557 3782 557 3648 
C 755 3648 1088 3686 1344 3839 
L 1344 467 
C 1344 243 1331 166 781 166 
L 589 166 
L 589 0 
C 896 6 1216 12 1523 12 
C 1830 12 2150 6 2458 0 
L 2458 166 
L 2266 166 
C 1715 166 1702 236 1702 467 
L 1702 4083 
z
" transform="scale(0.015625)"/>
        <path id="CMR17-30" d="M 2688 2038 
C 2688 2430 2682 3099 2413 3613 
C 2176 4063 1798 4224 1466 4224 
C 1158 4224 768 4082 525 3620 
C 269 3137 243 2539 243 2038 
C 243 1671 250 1112 448 623 
C 723 -39 1216 -128 1466 -128 
C 1760 -128 2208 -7 2470 604 
C 2662 1048 2688 1568 2688 2038 
z
M 1466 -26 
C 1056 -26 813 328 723 816 
C 653 1196 653 1749 653 2109 
C 653 2604 653 3015 736 3407 
C 858 3954 1216 4121 1466 4121 
C 1728 4121 2067 3947 2189 3420 
C 2272 3054 2278 2623 2278 2109 
C 2278 1691 2278 1176 2202 797 
C 2067 96 1690 -26 1466 -26 
z
" transform="scale(0.015625)"/>
        <path id="CMR17-32" d="M 2669 990 
L 2554 990 
C 2490 537 2438 460 2413 422 
C 2381 371 1920 371 1830 371 
L 602 371 
C 832 620 1280 1073 1824 1596 
C 2214 1966 2669 2400 2669 3033 
C 2669 3788 2067 4224 1395 4224 
C 691 4224 262 3603 262 3027 
C 262 2777 448 2745 525 2745 
C 589 2745 781 2783 781 3007 
C 781 3206 614 3264 525 3264 
C 486 3264 448 3257 422 3244 
C 544 3788 915 4057 1306 4057 
C 1862 4057 2227 3616 2227 3033 
C 2227 2477 1901 1998 1536 1583 
L 262 147 
L 262 0 
L 2515 0 
L 2669 990 
z
" transform="scale(0.015625)"/>
       </defs>
       <use xlink:href="#CMR17-31" transform="scale(0.996264)"/>
       <use xlink:href="#CMR17-30" transform="translate(45.690477 0) scale(0.996264)"/>
       <use xlink:href="#CMR17-32" transform="translate(91.380954 36.153639) scale(0.697382)"/>
      </g>
     </g>
    </g>
    <g id="xtick_2">
     <g id="line2d_2">
      <g>
       <use xlink:href="#m886fd6f568" x="151.954149" y="251.564405" style="stroke: #000000; stroke-width: 0.8"/>
      </g>
     </g>
     <g id="text_2">
      <!-- $\mathdefault{10^{3}}$ -->
      <g transform="translate(141.360627 269.633994) scale(0.16 -0.16)">
       <defs>
        <path id="CMR17-33" d="M 1414 2176 
C 1984 2176 2234 1673 2234 1094 
C 2234 322 1824 25 1453 25 
C 1114 25 563 193 390 691 
C 422 678 454 678 486 678 
C 640 678 755 780 755 947 
C 755 1132 614 1216 486 1216 
C 378 1216 211 1164 211 927 
C 211 335 787 -128 1466 -128 
C 2176 -128 2720 432 2720 1087 
C 2720 1718 2208 2176 1600 2246 
C 2086 2347 2554 2776 2554 3353 
C 2554 3856 2048 4224 1472 4224 
C 890 4224 378 3862 378 3347 
C 378 3123 544 3084 627 3084 
C 762 3084 877 3167 877 3334 
C 877 3500 762 3584 627 3584 
C 602 3584 570 3584 544 3571 
C 730 3999 1235 4076 1459 4076 
C 1683 4076 2106 3966 2106 3347 
C 2106 3167 2080 2851 1862 2574 
C 1670 2329 1453 2316 1242 2297 
C 1210 2297 1062 2284 1037 2284 
C 992 2278 966 2272 966 2227 
C 966 2182 973 2176 1101 2176 
L 1414 2176 
z
" transform="scale(0.015625)"/>
       </defs>
       <use xlink:href="#CMR17-31" transform="scale(0.996264)"/>
       <use xlink:href="#CMR17-30" transform="translate(45.690477 0) scale(0.996264)"/>
       <use xlink:href="#CMR17-33" transform="translate(91.380954 36.153639) scale(0.697382)"/>
      </g>
     </g>
    </g>
    <g id="xtick_3">
     <g id="line2d_3">
      <g>
       <use xlink:href="#m886fd6f568" x="235.654149" y="251.564405" style="stroke: #000000; stroke-width: 0.8"/>
      </g>
     </g>
     <g id="text_3">
      <!-- $\mathdefault{10^{4}}$ -->
      <g transform="translate(225.060627 269.633994) scale(0.16 -0.16)">
       <defs>
        <path id="CMR17-34" d="M 2150 4147 
C 2150 4281 2144 4288 2029 4288 
L 128 1254 
L 128 1088 
L 1779 1088 
L 1779 460 
C 1779 230 1766 166 1318 166 
L 1197 166 
L 1197 0 
C 1402 12 1747 12 1965 12 
C 2182 12 2528 12 2733 0 
L 2733 166 
L 2611 166 
C 2163 166 2150 230 2150 460 
L 2150 1088 
L 2803 1088 
L 2803 1254 
L 2150 1254 
L 2150 4147 
z
M 1798 3723 
L 1798 1254 
L 256 1254 
L 1798 3723 
z
" transform="scale(0.015625)"/>
       </defs>
       <use xlink:href="#CMR17-31" transform="scale(0.996264)"/>
       <use xlink:href="#CMR17-30" transform="translate(45.690477 0) scale(0.996264)"/>
       <use xlink:href="#CMR17-34" transform="translate(91.380954 36.153639) scale(0.697382)"/>
      </g>
     </g>
    </g>
    <g id="xtick_4">
     <g id="line2d_4">
      <g>
       <use xlink:href="#m886fd6f568" x="319.354149" y="251.564405" style="stroke: #000000; stroke-width: 0.8"/>
      </g>
     </g>
     <g id="text_4">
      <!-- $\mathdefault{10^{5}}$ -->
      <g transform="translate(308.760627 269.633994) scale(0.16 -0.16)">
       <defs>
        <path id="CMR17-35" d="M 730 3750 
C 794 3724 1056 3641 1325 3641 
C 1920 3641 2246 3961 2432 4140 
C 2432 4191 2432 4224 2394 4224 
C 2387 4224 2374 4224 2323 4198 
C 2099 4102 1837 4032 1517 4032 
C 1325 4032 1037 4055 723 4191 
C 653 4224 640 4224 634 4224 
C 602 4224 595 4217 595 4090 
L 595 2231 
C 595 2113 595 2080 659 2080 
C 691 2080 704 2093 736 2139 
C 941 2435 1222 2560 1542 2560 
C 1766 2560 2246 2415 2246 1293 
C 2246 1087 2246 716 2054 422 
C 1894 159 1645 25 1370 25 
C 947 25 518 319 403 812 
C 429 806 480 793 506 793 
C 589 793 749 838 749 1036 
C 749 1209 627 1280 506 1280 
C 358 1280 262 1190 262 1011 
C 262 454 704 -128 1382 -128 
C 2042 -128 2669 441 2669 1267 
C 2669 2054 2170 2662 1549 2662 
C 1222 2662 947 2540 730 2304 
L 730 3750 
z
" transform="scale(0.015625)"/>
       </defs>
       <use xlink:href="#CMR17-31" transform="scale(0.996264)"/>
       <use xlink:href="#CMR17-30" transform="translate(45.690477 0) scale(0.996264)"/>
       <use xlink:href="#CMR17-35" transform="translate(91.380954 36.153639) scale(0.697382)"/>
      </g>
     </g>
    </g>
    <g id="xtick_5">
     <g id="line2d_5">
      <defs>
       <path id="m79c381d54a" d="M 0 0 
L 0 2 
" style="stroke: #000000; stroke-width: 0.6"/>
      </defs>
      <g>
       <use xlink:href="#m79c381d54a" x="93.450359" y="251.564405" style="stroke: #000000; stroke-width: 0.6"/>
      </g>
     </g>
    </g>
    <g id="xtick_6">
     <g id="line2d_6">
      <g>
       <use xlink:href="#m79c381d54a" x="108.189198" y="251.564405" style="stroke: #000000; stroke-width: 0.6"/>
      </g>
     </g>
    </g>
    <g id="xtick_7">
     <g id="line2d_7">
      <g>
       <use xlink:href="#m79c381d54a" x="118.64657" y="251.564405" style="stroke: #000000; stroke-width: 0.6"/>
      </g>
     </g>
    </g>
    <g id="xtick_8">
     <g id="line2d_8">
      <g>
       <use xlink:href="#m79c381d54a" x="126.757938" y="251.564405" style="stroke: #000000; stroke-width: 0.6"/>
      </g>
     </g>
    </g>
    <g id="xtick_9">
     <g id="line2d_9">
      <g>
       <use xlink:href="#m79c381d54a" x="133.385408" y="251.564405" style="stroke: #000000; stroke-width: 0.6"/>
      </g>
     </g>
    </g>
    <g id="xtick_10">
     <g id="line2d_10">
      <g>
       <use xlink:href="#m79c381d54a" x="138.988855" y="251.564405" style="stroke: #000000; stroke-width: 0.6"/>
      </g>
     </g>
    </g>
    <g id="xtick_11">
     <g id="line2d_11">
      <g>
       <use xlink:href="#m79c381d54a" x="143.842781" y="251.564405" style="stroke: #000000; stroke-width: 0.6"/>
      </g>
     </g>
    </g>
    <g id="xtick_12">
     <g id="line2d_12">
      <g>
       <use xlink:href="#m79c381d54a" x="148.124247" y="251.564405" style="stroke: #000000; stroke-width: 0.6"/>
      </g>
     </g>
    </g>
    <g id="xtick_13">
     <g id="line2d_13">
      <g>
       <use xlink:href="#m79c381d54a" x="177.150359" y="251.564405" style="stroke: #000000; stroke-width: 0.6"/>
      </g>
     </g>
    </g>
    <g id="xtick_14">
     <g id="line2d_14">
      <g>
       <use xlink:href="#m79c381d54a" x="191.889198" y="251.564405" style="stroke: #000000; stroke-width: 0.6"/>
      </g>
     </g>
    </g>
    <g id="xtick_15">
     <g id="line2d_15">
      <g>
       <use xlink:href="#m79c381d54a" x="202.34657" y="251.564405" style="stroke: #000000; stroke-width: 0.6"/>
      </g>
     </g>
    </g>
    <g id="xtick_16">
     <g id="line2d_16">
      <g>
       <use xlink:href="#m79c381d54a" x="210.457938" y="251.564405" style="stroke: #000000; stroke-width: 0.6"/>
      </g>
     </g>
    </g>
    <g id="xtick_17">
     <g id="line2d_17">
      <g>
       <use xlink:href="#m79c381d54a" x="217.085408" y="251.564405" style="stroke: #000000; stroke-width: 0.6"/>
      </g>
     </g>
    </g>
    <g id="xtick_18">
     <g id="line2d_18">
      <g>
       <use xlink:href="#m79c381d54a" x="222.688855" y="251.564405" style="stroke: #000000; stroke-width: 0.6"/>
      </g>
     </g>
    </g>
    <g id="xtick_19">
     <g id="line2d_19">
      <g>
       <use xlink:href="#m79c381d54a" x="227.542781" y="251.564405" style="stroke: #000000; stroke-width: 0.6"/>
      </g>
     </g>
    </g>
    <g id="xtick_20">
     <g id="line2d_20">
      <g>
       <use xlink:href="#m79c381d54a" x="231.824247" y="251.564405" style="stroke: #000000; stroke-width: 0.6"/>
      </g>
     </g>
    </g>
    <g id="xtick_21">
     <g id="line2d_21">
      <g>
       <use xlink:href="#m79c381d54a" x="260.850359" y="251.564405" style="stroke: #000000; stroke-width: 0.6"/>
      </g>
     </g>
    </g>
    <g id="xtick_22">
     <g id="line2d_22">
      <g>
       <use xlink:href="#m79c381d54a" x="275.589198" y="251.564405" style="stroke: #000000; stroke-width: 0.6"/>
      </g>
     </g>
    </g>
    <g id="xtick_23">
     <g id="line2d_23">
      <g>
       <use xlink:href="#m79c381d54a" x="286.04657" y="251.564405" style="stroke: #000000; stroke-width: 0.6"/>
      </g>
     </g>
    </g>
    <g id="xtick_24">
     <g id="line2d_24">
      <g>
       <use xlink:href="#m79c381d54a" x="294.157938" y="251.564405" style="stroke: #000000; stroke-width: 0.6"/>
      </g>
     </g>
    </g>
    <g id="xtick_25">
     <g id="line2d_25">
      <g>
       <use xlink:href="#m79c381d54a" x="300.785408" y="251.564405" style="stroke: #000000; stroke-width: 0.6"/>
      </g>
     </g>
    </g>
    <g id="xtick_26">
     <g id="line2d_26">
      <g>
       <use xlink:href="#m79c381d54a" x="306.388855" y="251.564405" style="stroke: #000000; stroke-width: 0.6"/>
      </g>
     </g>
    </g>
    <g id="xtick_27">
     <g id="line2d_27">
      <g>
       <use xlink:href="#m79c381d54a" x="311.242781" y="251.564405" style="stroke: #000000; stroke-width: 0.6"/>
      </g>
     </g>
    </g>
    <g id="xtick_28">
     <g id="line2d_28">
      <g>
       <use xlink:href="#m79c381d54a" x="315.524247" y="251.564405" style="stroke: #000000; stroke-width: 0.6"/>
      </g>
     </g>
    </g>
    <g id="text_5">
     <!-- Size of Training Dataset -->
     <g transform="translate(97.239204 290.570466) scale(0.2 -0.2)">
      <defs>
       <path id="CMR17-53" d="M 2803 4351 
C 2803 4467 2797 4473 2758 4473 
C 2720 4473 2707 4447 2682 4390 
L 2490 3965 
C 2246 4320 1875 4480 1472 4480 
C 819 4480 294 3958 294 3301 
C 294 3101 339 2817 557 2546 
C 794 2250 1018 2198 1530 2063 
C 1722 2011 2042 1927 2106 1901 
C 2470 1747 2662 1360 2662 999 
C 2662 534 2336 38 1779 38 
C 1094 38 454 425 410 1328 
C 403 1431 397 1437 352 1437 
C 301 1437 294 1431 294 1302 
L 294 0 
C 294 -116 301 -122 339 -122 
C 384 -122 397 -90 486 109 
C 493 128 493 141 614 386 
C 934 -39 1472 -128 1779 -128 
C 2477 -128 2970 457 2970 1141 
C 2970 1476 2848 1734 2778 1850 
C 2509 2263 2221 2340 1914 2417 
C 1869 2437 1856 2437 1498 2527 
C 1152 2617 1005 2662 845 2836 
C 666 3036 602 3243 602 3449 
C 602 3868 934 4326 1478 4326 
C 2157 4326 2579 3842 2675 3036 
C 2694 2920 2701 2914 2746 2914 
C 2803 2914 2803 2933 2803 3043 
L 2803 4351 
z
" transform="scale(0.015625)"/>
       <path id="CMR17-69" d="M 992 3961 
C 992 4102 877 4224 730 4224 
C 589 4224 467 4108 467 3961 
C 467 3820 582 3699 730 3699 
C 870 3699 992 3814 992 3961 
z
M 243 2745 
L 243 2579 
C 602 2579 653 2540 653 2231 
L 653 443 
C 653 198 627 166 218 166 
L 218 0 
C 371 12 646 12 806 12 
C 960 12 1222 12 1370 0 
L 1370 166 
C 992 166 979 205 979 436 
L 979 2816 
L 243 2745 
z
" transform="scale(0.015625)"/>
       <path id="CMR17-7a" d="M 2310 2604 
C 2362 2668 2362 2681 2362 2694 
C 2362 2752 2336 2752 2221 2752 
L 275 2752 
L 211 1760 
L 326 1760 
C 371 2380 442 2649 1178 2649 
L 1958 2649 
L 128 96 
C 128 6 134 0 269 0 
L 2291 0 
L 2381 1152 
L 2266 1152 
C 2214 441 2131 115 1350 115 
L 531 115 
L 2310 2604 
z
" transform="scale(0.015625)"/>
       <path id="CMR17-65" d="M 2438 1503 
C 2464 1529 2464 1542 2464 1606 
C 2464 2251 2118 2816 1389 2816 
C 710 2816 173 2175 173 1394 
C 173 554 781 -64 1459 -64 
C 2176 -64 2458 619 2458 755 
C 2458 800 2419 800 2406 800 
C 2362 800 2355 787 2330 709 
C 2189 270 1837 51 1504 51 
C 1229 51 954 206 781 490 
C 582 819 582 1200 582 1503 
L 2438 1503 
z
M 589 1600 
C 634 2511 1126 2713 1382 2713 
C 1818 2713 2112 2308 2118 1600 
L 589 1600 
z
" transform="scale(0.015625)"/>
       <path id="CMR17-6f" d="M 2758 1356 
C 2758 2176 2163 2816 1466 2816 
C 768 2816 173 2176 173 1356 
C 173 550 768 -64 1466 -64 
C 2163 -64 2758 550 2758 1356 
z
M 1466 51 
C 1165 51 909 230 762 480 
C 602 768 582 1126 582 1408 
C 582 1676 595 2009 762 2297 
C 890 2508 1139 2713 1466 2713 
C 1754 2713 1997 2553 2150 2329 
C 2349 2028 2349 1606 2349 1408 
C 2349 1158 2336 774 2163 467 
C 1984 172 1709 51 1466 51 
z
" transform="scale(0.015625)"/>
       <path id="CMR17-66" d="M 979 2585 
L 1709 2585 
L 1709 2752 
L 966 2752 
L 966 3539 
C 966 4076 1235 4377 1510 4377 
C 1594 4377 1690 4363 1754 4339 
C 1702 4326 1568 4281 1568 4121 
C 1568 3955 1696 3904 1786 3904 
C 1875 3904 2003 3955 2003 4121 
C 2003 4353 1773 4480 1517 4480 
C 1152 4480 653 4211 653 3526 
L 653 2752 
L 141 2752 
L 141 2585 
L 653 2585 
L 653 441 
C 653 198 627 166 218 166 
L 218 0 
C 371 12 666 12 832 12 
C 1018 12 1344 12 1517 0 
L 1517 166 
C 1056 166 979 166 979 454 
L 979 2585 
z
" transform="scale(0.015625)"/>
       <path id="CMR17-54" d="M 3981 4332 
L 288 4332 
L 179 2924 
L 294 2924 
C 378 3981 467 4166 1453 4166 
C 1568 4166 1754 4166 1805 4159 
C 1926 4140 1926 4064 1926 3917 
L 1926 465 
C 1926 236 1907 166 1376 166 
L 1197 166 
L 1197 0 
C 1504 6 1824 12 2138 12 
C 2451 12 2771 6 3078 0 
L 3078 166 
L 2899 166 
C 2368 166 2349 236 2349 465 
L 2349 3917 
C 2349 4057 2349 4134 2464 4159 
C 2515 4166 2701 4166 2816 4166 
C 3795 4166 3891 3981 3974 2924 
L 4090 2924 
L 3981 4332 
z
" transform="scale(0.015625)"/>
       <path id="CMR17-72" d="M 960 1517 
C 960 2134 1222 2713 1702 2713 
C 1747 2713 1792 2707 1837 2687 
C 1837 2687 1696 2642 1696 2475 
C 1696 2321 1818 2257 1914 2257 
C 1990 2257 2131 2302 2131 2482 
C 2131 2687 1926 2816 1709 2816 
C 1222 2816 1011 2340 947 2115 
L 941 2115 
L 941 2816 
L 198 2745 
L 198 2578 
C 576 2578 634 2540 634 2231 
L 634 443 
C 634 198 608 166 198 166 
L 198 0 
C 352 12 646 12 813 12 
C 998 12 1325 12 1498 0 
L 1498 166 
C 1037 166 960 166 960 455 
L 960 1517 
z
" transform="scale(0.015625)"/>
       <path id="CMR17-61" d="M 2304 1656 
C 2304 2048 2304 2275 2035 2534 
C 1798 2751 1523 2816 1306 2816 
C 800 2816 435 2408 435 1977 
C 435 1740 627 1728 666 1728 
C 749 1728 896 1779 896 1958 
C 896 2118 774 2188 666 2188 
C 640 2188 608 2182 589 2176 
C 723 2594 1069 2713 1293 2713 
C 1613 2713 1965 2421 1965 1875 
L 1965 1632 
C 1587 1619 1133 1568 774 1373 
C 371 1147 256 822 256 576 
C 256 77 832 -64 1171 -64 
C 1523 -64 1850 135 1990 505 
C 2003 219 2182 -39 2464 -39 
C 2598 -39 2938 51 2938 563 
L 2938 926 
L 2822 926 
L 2822 557 
C 2822 161 2650 109 2566 109 
C 2304 109 2304 446 2304 732 
L 2304 1656 
z
M 1965 887 
C 1965 323 1568 38 1216 38 
C 896 38 646 278 646 576 
C 646 771 730 1114 1101 1322 
C 1408 1497 1760 1523 1965 1536 
L 1965 887 
z
" transform="scale(0.015625)"/>
       <path id="CMR17-6e" d="M 2656 1954 
C 2656 2282 2592 2816 1837 2816 
C 1331 2816 1069 2424 973 2166 
L 966 2166 
L 966 2816 
L 211 2745 
L 211 2578 
C 589 2578 646 2540 646 2231 
L 646 443 
C 646 198 621 166 211 166 
L 211 0 
C 365 12 646 12 813 12 
C 979 12 1267 12 1421 0 
L 1421 166 
C 1011 166 986 192 986 443 
L 986 1678 
C 986 2269 1344 2713 1792 2713 
C 2266 2713 2317 2289 2317 1980 
L 2317 443 
C 2317 198 2291 166 1882 166 
L 1882 0 
C 2035 12 2317 12 2483 12 
C 2650 12 2938 12 3091 0 
L 3091 166 
C 2682 166 2656 192 2656 443 
L 2656 1954 
z
" transform="scale(0.015625)"/>
       <path id="CMR17-67" d="M 710 1165 
C 832 1068 1043 960 1299 960 
C 1805 960 2240 1359 2240 1895 
C 2240 2063 2189 2321 1997 2521 
C 2176 2713 2438 2777 2586 2777 
C 2611 2777 2650 2777 2682 2758 
C 2656 2751 2598 2726 2598 2623 
C 2598 2540 2656 2483 2739 2483 
C 2835 2483 2886 2547 2886 2630 
C 2886 2751 2790 2880 2586 2880 
C 2330 2880 2106 2758 1926 2591 
C 1734 2764 1504 2828 1299 2828 
C 794 2828 358 2431 358 1895 
C 358 1527 570 1294 634 1230 
C 442 1004 442 742 442 710 
C 442 544 506 300 723 166 
C 390 82 128 -184 128 -517 
C 128 -996 736 -1344 1466 -1344 
C 2170 -1344 2803 -1009 2803 -510 
C 2803 384 1856 384 1363 384 
C 1216 384 954 384 922 390 
C 723 422 589 601 589 825 
C 589 883 589 1024 710 1165 
z
M 1299 1068 
C 736 1068 736 1766 736 1895 
C 736 2024 736 2719 1299 2719 
C 1862 2719 1862 2024 1862 1895 
C 1862 1766 1862 1068 1299 1068 
z
M 1466 -1236 
C 826 -1236 384 -883 384 -517 
C 384 -311 493 -118 634 -11 
C 794 102 858 102 1293 102 
C 1818 102 2547 102 2547 -517 
C 2547 -883 2106 -1236 1466 -1236 
z
" transform="scale(0.015625)"/>
       <path id="CMR17-44" d="M 333 4352 
L 333 4185 
C 774 4185 845 4185 845 3898 
L 845 453 
C 845 166 774 166 333 166 
L 333 0 
L 2368 0 
C 3398 0 4224 943 4224 2140 
C 4224 3344 3411 4352 2368 4352 
L 333 4352 
z
M 1523 166 
C 1267 166 1254 198 1254 414 
L 1254 3936 
C 1254 4153 1267 4185 1523 4185 
L 2240 4185 
C 2771 4185 3750 3873 3750 2140 
C 3750 1242 3488 879 3366 707 
C 3213 510 2848 166 2240 166 
L 1523 166 
z
" transform="scale(0.015625)"/>
       <path id="CMR17-74" d="M 966 2585 
L 1862 2585 
L 1862 2752 
L 966 2752 
L 966 3968 
L 851 3968 
C 838 3292 614 2700 70 2687 
L 70 2585 
L 627 2585 
L 627 778 
C 627 655 627 -64 1370 -64 
C 1747 -64 1965 308 1965 784 
L 1965 1151 
L 1850 1151 
L 1850 790 
C 1850 347 1677 51 1408 51 
C 1222 51 966 179 966 765 
L 966 2585 
z
" transform="scale(0.015625)"/>
       <path id="CMR17-73" d="M 1978 2688 
C 1978 2803 1971 2809 1933 2809 
C 1907 2809 1901 2803 1824 2707 
C 1805 2681 1747 2617 1728 2592 
C 1523 2809 1235 2816 1126 2816 
C 416 2816 160 2444 160 2073 
C 160 1497 813 1363 998 1324 
C 1402 1241 1542 1216 1677 1100 
C 1760 1024 1901 883 1901 652 
C 1901 384 1747 38 1158 38 
C 602 38 403 460 288 1024 
C 269 1113 269 1120 218 1120 
C 166 1120 160 1113 160 985 
L 160 64 
C 160 -52 166 -58 205 -58 
C 237 -58 243 -52 275 0 
C 314 57 410 211 448 275 
C 576 102 800 -64 1158 -64 
C 1792 -64 2131 281 2131 780 
C 2131 1107 1958 1280 1875 1356 
C 1683 1555 1459 1600 1190 1651 
C 838 1728 390 1817 390 2208 
C 390 2374 480 2726 1126 2726 
C 1811 2726 1850 2086 1862 1881 
C 1869 1849 1901 1843 1920 1843 
C 1978 1843 1978 1862 1978 1971 
L 1978 2688 
z
" transform="scale(0.015625)"/>
      </defs>
      <use xlink:href="#CMR17-53" transform="scale(0.996264)"/>
      <use xlink:href="#CMR17-69" transform="translate(50.89537 0) scale(0.996264)"/>
      <use xlink:href="#CMR17-7a" transform="translate(75.766428 0) scale(0.996264)"/>
      <use xlink:href="#CMR17-65" transform="translate(116.252089 0) scale(0.996264)"/>
      <use xlink:href="#CMR17-6f" transform="translate(186.813716 0) scale(0.996264)"/>
      <use xlink:href="#CMR17-66" transform="translate(232.504193 0) scale(0.996264)"/>
      <use xlink:href="#CMR17-54" transform="translate(290.053671 0) scale(0.996264)"/>
      <use xlink:href="#CMR17-72" transform="translate(348.756297 0) scale(0.996264)"/>
      <use xlink:href="#CMR17-61" transform="translate(384.037064 0) scale(0.996264)"/>
      <use xlink:href="#CMR17-69" transform="translate(429.727541 0) scale(0.996264)"/>
      <use xlink:href="#CMR17-6e" transform="translate(454.5986 0) scale(0.996264)"/>
      <use xlink:href="#CMR17-69" transform="translate(505.49397 0) scale(0.996264)"/>
      <use xlink:href="#CMR17-6e" transform="translate(530.365028 0) scale(0.996264)"/>
      <use xlink:href="#CMR17-67" transform="translate(581.260398 0) scale(0.996264)"/>
      <use xlink:href="#CMR17-44" transform="translate(657.026841 0) scale(0.996264)"/>
      <use xlink:href="#CMR17-61" transform="translate(727.420397 0) scale(0.996264)"/>
      <use xlink:href="#CMR17-74" transform="translate(773.110875 0) scale(0.996264)"/>
      <use xlink:href="#CMR17-61" transform="translate(808.391642 0) scale(0.996264)"/>
      <use xlink:href="#CMR17-73" transform="translate(854.082119 0) scale(0.996264)"/>
      <use xlink:href="#CMR17-65" transform="translate(889.883457 0) scale(0.996264)"/>
      <use xlink:href="#CMR17-74" transform="translate(930.369118 0) scale(0.996264)"/>
     </g>
    </g>
   </g>
   <g id="matplotlib.axis_2">
    <g id="ytick_1">
     <g id="line2d_29">
      <defs>
       <path id="m4cb41a132e" d="M 0 0 
L -3.5 0 
" style="stroke: #000000; stroke-width: 0.8"/>
      </defs>
      <g>
       <use xlink:href="#m4cb41a132e" x="68.254149" y="251.564405" style="stroke: #000000; stroke-width: 0.8"/>
      </g>
     </g>
     <g id="text_6">
      <!-- $\mathdefault{−0.6}$ -->
      <g transform="translate(28.91263 257.099199) scale(0.16 -0.16)">
       <defs>
        <path id="CMSY10-0" d="M 4218 1472 
C 4326 1472 4442 1472 4442 1600 
C 4442 1728 4326 1728 4218 1728 
L 755 1728 
C 646 1728 531 1728 531 1600 
C 531 1472 646 1472 755 1472 
L 4218 1472 
z
" transform="scale(0.015625)"/>
        <path id="CMMI12-3a" d="M 1178 307 
C 1178 492 1024 620 870 620 
C 685 620 557 467 557 313 
C 557 128 710 0 864 0 
C 1050 0 1178 153 1178 307 
z
" transform="scale(0.015625)"/>
        <path id="CMR17-36" d="M 678 2198 
C 678 3712 1395 4076 1811 4076 
C 1946 4076 2272 4049 2400 3782 
C 2298 3782 2106 3782 2106 3558 
C 2106 3385 2246 3328 2336 3328 
C 2394 3328 2566 3353 2566 3571 
C 2566 3987 2246 4224 1805 4224 
C 1043 4224 243 3411 243 2011 
C 243 257 966 -128 1478 -128 
C 2099 -128 2688 431 2688 1295 
C 2688 2101 2170 2688 1517 2688 
C 1126 2688 838 2430 678 1979 
L 678 2198 
z
M 1478 25 
C 691 25 691 1212 691 1450 
C 691 1914 909 2585 1504 2585 
C 1613 2585 1926 2585 2138 2140 
C 2253 1889 2253 1624 2253 1302 
C 2253 954 2253 696 2118 438 
C 1978 173 1773 25 1478 25 
z
" transform="scale(0.015625)"/>
       </defs>
       <use xlink:href="#CMSY10-0" transform="scale(0.996264)"/>
       <use xlink:href="#CMR17-30" transform="translate(77.487468 0) scale(0.996264)"/>
       <use xlink:href="#CMMI12-3a" transform="translate(123.177945 0) scale(0.996264)"/>
       <use xlink:href="#CMR17-36" transform="translate(150.275122 0) scale(0.996264)"/>
      </g>
     </g>
    </g>
    <g id="ytick_2">
     <g id="line2d_30">
      <g>
       <use xlink:href="#m4cb41a132e" x="68.254149" y="223.844405" style="stroke: #000000; stroke-width: 0.8"/>
      </g>
     </g>
     <g id="text_7">
      <!-- $\mathdefault{−0.4}$ -->
      <g transform="translate(28.91263 229.379199) scale(0.16 -0.16)">
       <use xlink:href="#CMSY10-0" transform="scale(0.996264)"/>
       <use xlink:href="#CMR17-30" transform="translate(77.487468 0) scale(0.996264)"/>
       <use xlink:href="#CMMI12-3a" transform="translate(123.177945 0) scale(0.996264)"/>
       <use xlink:href="#CMR17-34" transform="translate(150.275122 0) scale(0.996264)"/>
      </g>
     </g>
    </g>
    <g id="ytick_3">
     <g id="line2d_31">
      <g>
       <use xlink:href="#m4cb41a132e" x="68.254149" y="196.124405" style="stroke: #000000; stroke-width: 0.8"/>
      </g>
     </g>
     <g id="text_8">
      <!-- $\mathdefault{−0.2}$ -->
      <g transform="translate(28.91263 201.659199) scale(0.16 -0.16)">
       <use xlink:href="#CMSY10-0" transform="scale(0.996264)"/>
       <use xlink:href="#CMR17-30" transform="translate(77.487468 0) scale(0.996264)"/>
       <use xlink:href="#CMMI12-3a" transform="translate(123.177945 0) scale(0.996264)"/>
       <use xlink:href="#CMR17-32" transform="translate(150.275122 0) scale(0.996264)"/>
      </g>
     </g>
    </g>
    <g id="ytick_4">
     <g id="line2d_32">
      <g>
       <use xlink:href="#m4cb41a132e" x="68.254149" y="168.404405" style="stroke: #000000; stroke-width: 0.8"/>
      </g>
     </g>
     <g id="text_9">
      <!-- $\mathdefault{0.0}$ -->
      <g transform="translate(41.310626 173.939199) scale(0.16 -0.16)">
       <use xlink:href="#CMR17-30" transform="scale(0.996264)"/>
       <use xlink:href="#CMMI12-3a" transform="translate(45.690477 0) scale(0.996264)"/>
       <use xlink:href="#CMR17-30" transform="translate(72.787654 0) scale(0.996264)"/>
      </g>
     </g>
    </g>
    <g id="ytick_5">
     <g id="line2d_33">
      <g>
       <use xlink:href="#m4cb41a132e" x="68.254149" y="140.684405" style="stroke: #000000; stroke-width: 0.8"/>
      </g>
     </g>
     <g id="text_10">
      <!-- $\mathdefault{0.2}$ -->
      <g transform="translate(41.310626 146.219199) scale(0.16 -0.16)">
       <use xlink:href="#CMR17-30" transform="scale(0.996264)"/>
       <use xlink:href="#CMMI12-3a" transform="translate(45.690477 0) scale(0.996264)"/>
       <use xlink:href="#CMR17-32" transform="translate(72.787654 0) scale(0.996264)"/>
      </g>
     </g>
    </g>
    <g id="ytick_6">
     <g id="line2d_34">
      <g>
       <use xlink:href="#m4cb41a132e" x="68.254149" y="112.964405" style="stroke: #000000; stroke-width: 0.8"/>
      </g>
     </g>
     <g id="text_11">
      <!-- $\mathdefault{0.4}$ -->
      <g transform="translate(41.310626 118.499199) scale(0.16 -0.16)">
       <use xlink:href="#CMR17-30" transform="scale(0.996264)"/>
       <use xlink:href="#CMMI12-3a" transform="translate(45.690477 0) scale(0.996264)"/>
       <use xlink:href="#CMR17-34" transform="translate(72.787654 0) scale(0.996264)"/>
      </g>
     </g>
    </g>
    <g id="ytick_7">
     <g id="line2d_35">
      <g>
       <use xlink:href="#m4cb41a132e" x="68.254149" y="85.244405" style="stroke: #000000; stroke-width: 0.8"/>
      </g>
     </g>
     <g id="text_12">
      <!-- $\mathdefault{0.6}$ -->
      <g transform="translate(41.310626 90.779199) scale(0.16 -0.16)">
       <use xlink:href="#CMR17-30" transform="scale(0.996264)"/>
       <use xlink:href="#CMMI12-3a" transform="translate(45.690477 0) scale(0.996264)"/>
       <use xlink:href="#CMR17-36" transform="translate(72.787654 0) scale(0.996264)"/>
      </g>
     </g>
    </g>
    <g id="ytick_8">
     <g id="line2d_36">
      <g>
       <use xlink:href="#m4cb41a132e" x="68.254149" y="57.524405" style="stroke: #000000; stroke-width: 0.8"/>
      </g>
     </g>
     <g id="text_13">
      <!-- $\mathdefault{0.8}$ -->
      <g transform="translate(41.310626 63.059199) scale(0.16 -0.16)">
       <defs>
        <path id="CMR17-38" d="M 1741 2289 
C 2144 2494 2554 2803 2554 3298 
C 2554 3884 1990 4224 1472 4224 
C 890 4224 378 3800 378 3215 
C 378 3054 416 2777 666 2533 
C 730 2469 998 2276 1171 2154 
C 883 2006 211 1652 211 945 
C 211 282 838 -128 1459 -128 
C 2144 -128 2720 366 2720 1022 
C 2720 1607 2330 1877 2074 2051 
L 1741 2289 
z
M 902 2855 
C 851 2887 595 3086 595 3388 
C 595 3781 998 4076 1459 4076 
C 1965 4076 2336 3716 2336 3298 
C 2336 2700 1670 2359 1638 2359 
C 1632 2359 1626 2359 1574 2398 
L 902 2855 
z
M 2080 1536 
C 2176 1466 2483 1253 2483 861 
C 2483 385 2010 25 1472 25 
C 890 25 448 443 448 951 
C 448 1459 838 1884 1280 2083 
L 2080 1536 
z
" transform="scale(0.015625)"/>
       </defs>
       <use xlink:href="#CMR17-30" transform="scale(0.996264)"/>
       <use xlink:href="#CMMI12-3a" transform="translate(45.690477 0) scale(0.996264)"/>
       <use xlink:href="#CMR17-38" transform="translate(72.787654 0) scale(0.996264)"/>
      </g>
     </g>
    </g>
    <g id="ytick_9">
     <g id="line2d_37">
      <g>
       <use xlink:href="#m4cb41a132e" x="68.254149" y="29.804405" style="stroke: #000000; stroke-width: 0.8"/>
      </g>
     </g>
     <g id="text_14">
      <!-- $\mathdefault{1.0}$ -->
      <g transform="translate(41.310626 35.339199) scale(0.16 -0.16)">
       <use xlink:href="#CMR17-31" transform="scale(0.996264)"/>
       <use xlink:href="#CMMI12-3a" transform="translate(45.690477 0) scale(0.996264)"/>
       <use xlink:href="#CMR17-30" transform="translate(72.787654 0) scale(0.996264)"/>
      </g>
     </g>
    </g>
    <g id="text_15">
     <!-- $R^2$ -->
     <g transform="translate(21.036997 151.605731) rotate(-90) scale(0.2 -0.2)">
      <defs>
       <path id="CMMI12-52" d="M 2355 3917 
C 2413 4153 2438 4166 2688 4166 
L 3149 4166 
C 3699 4166 4109 4000 4109 3503 
C 4109 3177 3942 2240 2656 2240 
L 1933 2240 
L 2355 3917 
z
M 3245 2163 
C 4038 2335 4659 2846 4659 3394 
C 4659 3892 4154 4352 3264 4352 
L 1530 4352 
C 1402 4352 1344 4352 1344 4230 
C 1344 4166 1389 4166 1510 4166 
C 1894 4166 1894 4115 1894 4045 
C 1894 4032 1894 3994 1869 3898 
L 1005 475 
C 947 253 934 190 493 190 
C 346 190 301 190 301 69 
C 301 6 371 6 390 6 
C 506 6 640 19 762 19 
L 1517 19 
C 1632 19 1766 6 1882 6 
C 1933 6 2003 6 2003 126 
C 2003 190 1946 190 1850 190 
C 1459 190 1459 241 1459 304 
C 1459 310 1459 355 1472 405 
L 1901 2112 
L 2669 2112 
C 3277 2112 3392 1731 3392 1522 
C 3392 1426 3328 1179 3283 1014 
C 3213 723 3194 653 3194 532 
C 3194 82 3565 -128 3994 -128 
C 4512 -128 4736 501 4736 589 
C 4736 634 4704 653 4666 653 
C 4614 653 4602 615 4589 564 
C 4435 114 4173 0 4013 0 
C 3853 0 3750 69 3750 355 
C 3750 507 3827 1084 3834 1116 
C 3866 1350 3866 1376 3866 1426 
C 3866 1889 3488 2086 3245 2163 
z
" transform="scale(0.015625)"/>
      </defs>
      <use xlink:href="#CMMI12-52" transform="scale(0.996264)"/>
      <use xlink:href="#CMR17-32" transform="translate(75.070962 36.153639) scale(0.697382)"/>
     </g>
    </g>
   </g>
   <g id="LineCollection_1">
    <path d="M 278.184256 44.564291 
L 278.184256 43.560822 
" clip-path="url(#p1a7d55b77a)" style="fill: none; stroke: #13679e"/>
    <path d="M 269.595931 45.287391 
L 269.595931 43.713304 
" clip-path="url(#p1a7d55b77a)" style="fill: none; stroke: #13679e"/>
    <path d="M 259.855404 45.722116 
L 259.855404 44.636029 
" clip-path="url(#p1a7d55b77a)" style="fill: none; stroke: #13679e"/>
    <path d="M 248.6049 46.328604 
L 248.6049 45.432868 
" clip-path="url(#p1a7d55b77a)" style="fill: none; stroke: #13679e"/>
    <path d="M 235.288815 47.765803 
L 235.288815 46.234455 
" clip-path="url(#p1a7d55b77a)" style="fill: none; stroke: #13679e"/>
    <path d="M 218.974168 50.03596 
L 218.974168 47.357998 
" clip-path="url(#p1a7d55b77a)" style="fill: none; stroke: #13679e"/>
    <path d="M 197.905722 52.273894 
L 197.905722 49.538467 
" clip-path="url(#p1a7d55b77a)" style="fill: none; stroke: #13679e"/>
    <path d="M 168.118678 92.31756 
L 168.118678 64.716741 
" clip-path="url(#p1a7d55b77a)" style="fill: none; stroke: #13679e"/>
    <path d="M 160.355163 108.116813 
L 160.355163 71.475502 
" clip-path="url(#p1a7d55b77a)" style="fill: none; stroke: #13679e"/>
    <path d="M 151.662176 192.174226 
L 151.662176 90.582176 
" clip-path="url(#p1a7d55b77a)" style="fill: none; stroke: #13679e"/>
    <path d="M 141.786423 204.756773 
L 141.786423 119.679434 
" clip-path="url(#p1a7d55b77a)" style="fill: none; stroke: #13679e"/>
    <path d="M 130.35445 200.22517 
L 130.35445 170.664604 
" clip-path="url(#p1a7d55b77a)" style="fill: none; stroke: #13679e"/>
    <path d="M 116.782036 217.892611 
L 116.782036 180.711997 
" clip-path="url(#p1a7d55b77a)" style="fill: none; stroke: #13679e"/>
   </g>
   <g id="LineCollection_2">
    <path d="M 278.184256 47.01691 
L 278.184256 46.678719 
" clip-path="url(#p1a7d55b77a)" style="fill: none; stroke: #c00000"/>
    <path d="M 269.595931 48.032087 
L 269.595931 46.476447 
" clip-path="url(#p1a7d55b77a)" style="fill: none; stroke: #c00000"/>
    <path d="M 259.855404 47.980905 
L 259.855404 46.890092 
" clip-path="url(#p1a7d55b77a)" style="fill: none; stroke: #c00000"/>
    <path d="M 248.6049 48.477277 
L 248.6049 47.659549 
" clip-path="url(#p1a7d55b77a)" style="fill: none; stroke: #c00000"/>
    <path d="M 235.288815 49.060726 
L 235.288815 47.968352 
" clip-path="url(#p1a7d55b77a)" style="fill: none; stroke: #c00000"/>
    <path d="M 218.974168 51.619176 
L 218.974168 48.745185 
" clip-path="url(#p1a7d55b77a)" style="fill: none; stroke: #c00000"/>
    <path d="M 197.905722 54.4846 
L 197.905722 51.398355 
" clip-path="url(#p1a7d55b77a)" style="fill: none; stroke: #c00000"/>
    <path d="M 168.118678 95.6355 
L 168.118678 66.528991 
" clip-path="url(#p1a7d55b77a)" style="fill: none; stroke: #c00000"/>
    <path d="M 160.355163 111.105088 
L 160.355163 73.250281 
" clip-path="url(#p1a7d55b77a)" style="fill: none; stroke: #c00000"/>
    <path d="M 151.662176 193.357724 
L 151.662176 95.586418 
" clip-path="url(#p1a7d55b77a)" style="fill: none; stroke: #c00000"/>
    <path d="M 141.786423 224.973074 
L 141.786423 122.784164 
" clip-path="url(#p1a7d55b77a)" style="fill: none; stroke: #c00000"/>
    <path d="M 130.35445 216.76719 
L 130.35445 169.444053 
" clip-path="url(#p1a7d55b77a)" style="fill: none; stroke: #c00000"/>
    <path d="M 116.782036 225.355166 
L 116.782036 185.365797 
" clip-path="url(#p1a7d55b77a)" style="fill: none; stroke: #c00000"/>
   </g>
   <g id="line2d_38">
    <path d="M 278.184256 44.062557 
L 269.595931 44.500348 
L 259.855404 45.179072 
L 248.6049 45.880736 
L 235.288815 47.000129 
L 218.974168 48.696979 
L 197.905722 50.906181 
L 168.118678 78.51715 
L 160.355163 89.796158 
L 151.662176 141.378201 
L 141.786423 162.218104 
L 130.35445 185.444887 
L 116.782036 199.302304 
" clip-path="url(#p1a7d55b77a)" style="fill: none; stroke: #13679e; stroke-width: 1.5; stroke-linecap: square"/>
    <defs>
     <path id="m71bfdd8550" d="M 0 3 
C 0.795609 3 1.55874 2.683901 2.12132 2.12132 
C 2.683901 1.55874 3 0.795609 3 0 
C 3 -0.795609 2.683901 -1.55874 2.12132 -2.12132 
C 1.55874 -2.683901 0.795609 -3 0 -3 
C -0.795609 -3 -1.55874 -2.683901 -2.12132 -2.12132 
C -2.683901 -1.55874 -3 -0.795609 -3 0 
C -3 0.795609 -2.683901 1.55874 -2.12132 2.12132 
C -1.55874 2.683901 -0.795609 3 0 3 
z
" style="stroke: #13679e"/>
    </defs>
    <g clip-path="url(#p1a7d55b77a)">
     <use xlink:href="#m71bfdd8550" x="278.184256" y="44.062557" style="fill-opacity: 0; stroke: #13679e"/>
     <use xlink:href="#m71bfdd8550" x="269.595931" y="44.500348" style="fill-opacity: 0; stroke: #13679e"/>
     <use xlink:href="#m71bfdd8550" x="259.855404" y="45.179072" style="fill-opacity: 0; stroke: #13679e"/>
     <use xlink:href="#m71bfdd8550" x="248.6049" y="45.880736" style="fill-opacity: 0; stroke: #13679e"/>
     <use xlink:href="#m71bfdd8550" x="235.288815" y="47.000129" style="fill-opacity: 0; stroke: #13679e"/>
     <use xlink:href="#m71bfdd8550" x="218.974168" y="48.696979" style="fill-opacity: 0; stroke: #13679e"/>
     <use xlink:href="#m71bfdd8550" x="197.905722" y="50.906181" style="fill-opacity: 0; stroke: #13679e"/>
     <use xlink:href="#m71bfdd8550" x="168.118678" y="78.51715" style="fill-opacity: 0; stroke: #13679e"/>
     <use xlink:href="#m71bfdd8550" x="160.355163" y="89.796158" style="fill-opacity: 0; stroke: #13679e"/>
     <use xlink:href="#m71bfdd8550" x="151.662176" y="141.378201" style="fill-opacity: 0; stroke: #13679e"/>
     <use xlink:href="#m71bfdd8550" x="141.786423" y="162.218104" style="fill-opacity: 0; stroke: #13679e"/>
     <use xlink:href="#m71bfdd8550" x="130.35445" y="185.444887" style="fill-opacity: 0; stroke: #13679e"/>
     <use xlink:href="#m71bfdd8550" x="116.782036" y="199.302304" style="fill-opacity: 0; stroke: #13679e"/>
    </g>
   </g>
   <g id="line2d_39">
    <path d="M 278.184256 46.847815 
L 269.595931 47.254267 
L 259.855404 47.435499 
L 248.6049 48.068413 
L 235.288815 48.514539 
L 218.974168 50.182181 
L 197.905722 52.941478 
L 168.118678 81.082245 
L 160.355163 92.177685 
L 151.662176 144.472071 
L 141.786423 173.878619 
L 130.35445 193.105621 
L 116.782036 205.360481 
" clip-path="url(#p1a7d55b77a)" style="fill: none; stroke: #c00000; stroke-width: 1.5; stroke-linecap: square"/>
    <defs>
     <path id="m5bb87eae22" d="M 0 3 
C 0.795609 3 1.55874 2.683901 2.12132 2.12132 
C 2.683901 1.55874 3 0.795609 3 0 
C 3 -0.795609 2.683901 -1.55874 2.12132 -2.12132 
C 1.55874 -2.683901 0.795609 -3 0 -3 
C -0.795609 -3 -1.55874 -2.683901 -2.12132 -2.12132 
C -2.683901 -1.55874 -3 -0.795609 -3 0 
C -3 0.795609 -2.683901 1.55874 -2.12132 2.12132 
C -1.55874 2.683901 -0.795609 3 0 3 
z
" style="stroke: #c00000"/>
    </defs>
    <g clip-path="url(#p1a7d55b77a)">
     <use xlink:href="#m5bb87eae22" x="278.184256" y="46.847815" style="fill-opacity: 0; stroke: #c00000"/>
     <use xlink:href="#m5bb87eae22" x="269.595931" y="47.254267" style="fill-opacity: 0; stroke: #c00000"/>
     <use xlink:href="#m5bb87eae22" x="259.855404" y="47.435499" style="fill-opacity: 0; stroke: #c00000"/>
     <use xlink:href="#m5bb87eae22" x="248.6049" y="48.068413" style="fill-opacity: 0; stroke: #c00000"/>
     <use xlink:href="#m5bb87eae22" x="235.288815" y="48.514539" style="fill-opacity: 0; stroke: #c00000"/>
     <use xlink:href="#m5bb87eae22" x="218.974168" y="50.182181" style="fill-opacity: 0; stroke: #c00000"/>
     <use xlink:href="#m5bb87eae22" x="197.905722" y="52.941478" style="fill-opacity: 0; stroke: #c00000"/>
     <use xlink:href="#m5bb87eae22" x="168.118678" y="81.082245" style="fill-opacity: 0; stroke: #c00000"/>
     <use xlink:href="#m5bb87eae22" x="160.355163" y="92.177685" style="fill-opacity: 0; stroke: #c00000"/>
     <use xlink:href="#m5bb87eae22" x="151.662176" y="144.472071" style="fill-opacity: 0; stroke: #c00000"/>
     <use xlink:href="#m5bb87eae22" x="141.786423" y="173.878619" style="fill-opacity: 0; stroke: #c00000"/>
     <use xlink:href="#m5bb87eae22" x="130.35445" y="193.105621" style="fill-opacity: 0; stroke: #c00000"/>
     <use xlink:href="#m5bb87eae22" x="116.782036" y="205.360481" style="fill-opacity: 0; stroke: #c00000"/>
    </g>
   </g>
   <g id="patch_3">
    <path d="M 68.254149 251.564405 
L 68.254149 29.804405 
" style="fill: none; stroke: #000000; stroke-width: 0.8; stroke-linejoin: miter; stroke-linecap: square"/>
   </g>
   <g id="patch_4">
    <path d="M 319.354149 251.564405 
L 319.354149 29.804405 
" style="fill: none; stroke: #000000; stroke-width: 0.8; stroke-linejoin: miter; stroke-linecap: square"/>
   </g>
   <g id="patch_5">
    <path d="M 68.254149 251.564405 
L 319.354149 251.564405 
" style="fill: none; stroke: #000000; stroke-width: 0.8; stroke-linejoin: miter; stroke-linecap: square"/>
   </g>
   <g id="patch_6">
    <path d="M 68.254149 29.804405 
L 319.354149 29.804405 
" style="fill: none; stroke: #000000; stroke-width: 0.8; stroke-linejoin: miter; stroke-linecap: square"/>
   </g>
  </g>
  <g id="axes_2">
   <g id="matplotlib.axis_3">
    <g id="ytick_10">
     <g id="line2d_40">
      <defs>
       <path id="m578104f7b9" d="M 0 0 
L 3.5 0 
" style="stroke: #000000; stroke-width: 0.8"/>
      </defs>
      <g>
       <use xlink:href="#m578104f7b9" x="319.354149" y="251.564405" style="stroke: #000000; stroke-width: 0.8"/>
      </g>
     </g>
     <g id="text_16">
      <!-- $\mathdefault{0.02}$ -->
      <g transform="translate(326.354149 257.099199) scale(0.16 -0.16)">
       <use xlink:href="#CMR17-30" transform="scale(0.996264)"/>
       <use xlink:href="#CMMI12-3a" transform="translate(45.690477 0) scale(0.996264)"/>
       <use xlink:href="#CMR17-30" transform="translate(72.787654 0) scale(0.996264)"/>
       <use xlink:href="#CMR17-32" transform="translate(118.478131 0) scale(0.996264)"/>
      </g>
     </g>
    </g>
    <g id="ytick_11">
     <g id="line2d_41">
      <g>
       <use xlink:href="#m578104f7b9" x="319.354149" y="214.604405" style="stroke: #000000; stroke-width: 0.8"/>
      </g>
     </g>
     <g id="text_17">
      <!-- $\mathdefault{0.04}$ -->
      <g transform="translate(326.354149 220.139199) scale(0.16 -0.16)">
       <use xlink:href="#CMR17-30" transform="scale(0.996264)"/>
       <use xlink:href="#CMMI12-3a" transform="translate(45.690477 0) scale(0.996264)"/>
       <use xlink:href="#CMR17-30" transform="translate(72.787654 0) scale(0.996264)"/>
       <use xlink:href="#CMR17-34" transform="translate(118.478131 0) scale(0.996264)"/>
      </g>
     </g>
    </g>
    <g id="ytick_12">
     <g id="line2d_42">
      <g>
       <use xlink:href="#m578104f7b9" x="319.354149" y="177.644405" style="stroke: #000000; stroke-width: 0.8"/>
      </g>
     </g>
     <g id="text_18">
      <!-- $\mathdefault{0.06}$ -->
      <g transform="translate(326.354149 183.179199) scale(0.16 -0.16)">
       <use xlink:href="#CMR17-30" transform="scale(0.996264)"/>
       <use xlink:href="#CMMI12-3a" transform="translate(45.690477 0) scale(0.996264)"/>
       <use xlink:href="#CMR17-30" transform="translate(72.787654 0) scale(0.996264)"/>
       <use xlink:href="#CMR17-36" transform="translate(118.478131 0) scale(0.996264)"/>
      </g>
     </g>
    </g>
    <g id="ytick_13">
     <g id="line2d_43">
      <g>
       <use xlink:href="#m578104f7b9" x="319.354149" y="140.684405" style="stroke: #000000; stroke-width: 0.8"/>
      </g>
     </g>
     <g id="text_19">
      <!-- $\mathdefault{0.08}$ -->
      <g transform="translate(326.354149 146.219199) scale(0.16 -0.16)">
       <use xlink:href="#CMR17-30" transform="scale(0.996264)"/>
       <use xlink:href="#CMMI12-3a" transform="translate(45.690477 0) scale(0.996264)"/>
       <use xlink:href="#CMR17-30" transform="translate(72.787654 0) scale(0.996264)"/>
       <use xlink:href="#CMR17-38" transform="translate(118.478131 0) scale(0.996264)"/>
      </g>
     </g>
    </g>
    <g id="ytick_14">
     <g id="line2d_44">
      <g>
       <use xlink:href="#m578104f7b9" x="319.354149" y="103.724405" style="stroke: #000000; stroke-width: 0.8"/>
      </g>
     </g>
     <g id="text_20">
      <!-- $\mathdefault{0.10}$ -->
      <g transform="translate(326.354149 109.259199) scale(0.16 -0.16)">
       <use xlink:href="#CMR17-30" transform="scale(0.996264)"/>
       <use xlink:href="#CMMI12-3a" transform="translate(45.690477 0) scale(0.996264)"/>
       <use xlink:href="#CMR17-31" transform="translate(72.787654 0) scale(0.996264)"/>
       <use xlink:href="#CMR17-30" transform="translate(118.478131 0) scale(0.996264)"/>
      </g>
     </g>
    </g>
    <g id="ytick_15">
     <g id="line2d_45">
      <g>
       <use xlink:href="#m578104f7b9" x="319.354149" y="66.764405" style="stroke: #000000; stroke-width: 0.8"/>
      </g>
     </g>
     <g id="text_21">
      <!-- $\mathdefault{0.12}$ -->
      <g transform="translate(326.354149 72.299199) scale(0.16 -0.16)">
       <use xlink:href="#CMR17-30" transform="scale(0.996264)"/>
       <use xlink:href="#CMMI12-3a" transform="translate(45.690477 0) scale(0.996264)"/>
       <use xlink:href="#CMR17-31" transform="translate(72.787654 0) scale(0.996264)"/>
       <use xlink:href="#CMR17-32" transform="translate(118.478131 0) scale(0.996264)"/>
      </g>
     </g>
    </g>
    <g id="ytick_16">
     <g id="line2d_46">
      <g>
       <use xlink:href="#m578104f7b9" x="319.354149" y="29.804405" style="stroke: #000000; stroke-width: 0.8"/>
      </g>
     </g>
     <g id="text_22">
      <!-- $\mathdefault{0.14}$ -->
      <g transform="translate(326.354149 35.339199) scale(0.16 -0.16)">
       <use xlink:href="#CMR17-30" transform="scale(0.996264)"/>
       <use xlink:href="#CMMI12-3a" transform="translate(45.690477 0) scale(0.996264)"/>
       <use xlink:href="#CMR17-31" transform="translate(72.787654 0) scale(0.996264)"/>
       <use xlink:href="#CMR17-34" transform="translate(118.478131 0) scale(0.996264)"/>
      </g>
     </g>
    </g>
    <g id="text_23">
     <!-- $MAE$ -->
     <g transform="translate(371.938655 165.696316) rotate(-90) scale(0.2 -0.2)">
      <defs>
       <path id="CMMI12-4d" d="M 5811 3886 
C 5869 4102 5882 4166 6336 4166 
C 6458 4166 6515 4166 6515 4287 
C 6515 4352 6470 4352 6349 4352 
L 5581 4352 
C 5421 4352 5414 4345 5344 4243 
L 3008 567 
L 2528 4211 
C 2509 4352 2502 4352 2336 4352 
L 1542 4352 
C 1421 4352 1363 4352 1363 4230 
C 1363 4166 1421 4166 1517 4166 
C 1907 4166 1907 4115 1907 4045 
C 1907 4032 1907 3994 1882 3898 
L 1062 650 
C 986 344 838 204 410 185 
C 390 185 314 179 314 70 
C 314 0 371 0 397 0 
C 525 0 851 12 979 12 
L 1286 12 
C 1376 12 1485 0 1574 0 
C 1619 0 1690 0 1690 121 
C 1690 179 1626 185 1600 185 
C 1389 191 1184 230 1184 459 
C 1184 523 1184 529 1210 618 
L 2093 4128 
L 2099 4128 
L 2630 172 
C 2650 19 2656 0 2714 0 
C 2784 0 2816 51 2848 108 
L 5421 4159 
L 5427 4159 
L 4499 472 
C 4442 249 4429 185 3981 185 
C 3859 185 3795 185 3795 70 
C 3795 0 3853 0 3891 0 
C 4000 0 4128 12 4237 12 
L 4992 12 
C 5101 12 5235 0 5344 0 
C 5395 0 5466 0 5466 121 
C 5466 185 5408 185 5312 185 
C 4922 185 4922 236 4922 300 
C 4922 306 4922 351 4934 402 
L 5811 3886 
z
" transform="scale(0.015625)"/>
       <path id="CMMI12-41" d="M 1088 720 
C 864 335 646 205 339 185 
C 269 179 218 179 218 64 
C 218 25 250 0 294 0 
C 410 0 698 12 813 12 
C 998 12 1203 0 1382 0 
C 1421 0 1498 0 1498 121 
C 1498 179 1446 185 1408 185 
C 1261 198 1139 250 1139 407 
C 1139 498 1178 570 1261 714 
L 1747 1536 
L 3379 1536 
C 3386 1477 3386 1425 3392 1366 
C 3411 1196 3488 518 3488 394 
C 3488 198 3162 185 3059 185 
C 2989 185 2918 185 2918 70 
C 2918 0 2976 0 3014 0 
C 3123 0 3251 12 3360 12 
L 3725 12 
C 4115 12 4397 0 4403 0 
C 4448 0 4518 0 4518 121 
C 4518 185 4461 185 4365 185 
C 4013 185 4006 244 3987 440 
L 3597 4403 
C 3584 4531 3558 4544 3488 4544 
C 3424 4544 3386 4531 3328 4435 
L 1088 720 
z
M 1856 1721 
L 3142 3831 
L 3360 1721 
L 1856 1721 
z
" transform="scale(0.015625)"/>
       <path id="CMMI12-45" d="M 4448 1489 
C 4454 1508 4474 1553 4474 1578 
C 4474 1611 4448 1643 4410 1643 
C 4384 1643 4371 1636 4352 1617 
C 4339 1611 4339 1598 4282 1469 
C 3904 570 3629 185 2605 185 
L 1670 185 
C 1581 185 1568 185 1530 192 
C 1459 198 1453 211 1453 262 
C 1453 307 1466 346 1478 403 
L 1920 2176 
L 2554 2176 
C 3053 2176 3091 2066 3091 1874 
C 3091 1810 3091 1752 3046 1559 
C 3034 1534 3027 1508 3027 1489 
C 3027 1444 3059 1424 3098 1424 
C 3155 1424 3162 1469 3187 1559 
L 3552 3036 
C 3552 3068 3526 3099 3488 3099 
C 3430 3099 3424 3074 3398 2986 
C 3270 2500 3142 2361 2573 2361 
L 1965 2361 
L 2362 3913 
C 2419 4134 2432 4153 2694 4153 
L 3610 4153 
C 4397 4153 4557 3945 4557 3465 
C 4557 3459 4557 3282 4531 3074 
C 4525 3049 4518 3011 4518 2998 
C 4518 2948 4550 2929 4589 2929 
C 4634 2929 4659 2954 4672 3068 
L 4806 4172 
C 4806 4191 4819 4255 4819 4268 
C 4819 4339 4762 4339 4646 4339 
L 1523 4339 
C 1402 4339 1338 4339 1338 4223 
C 1338 4153 1382 4153 1491 4153 
C 1888 4153 1888 4109 1888 4039 
C 1888 4008 1882 3983 1862 3913 
L 998 474 
C 941 249 928 185 480 185 
C 358 185 294 185 294 70 
C 294 0 333 0 461 0 
L 3674 0 
C 3814 0 3821 6 3866 108 
L 4448 1489 
z
" transform="scale(0.015625)"/>
      </defs>
      <use xlink:href="#CMMI12-4d" transform="scale(0.996264)"/>
      <use xlink:href="#CMMI12-41" transform="translate(104.780079 0) scale(0.996264)"/>
      <use xlink:href="#CMMI12-45" transform="translate(177.907964 0) scale(0.996264)"/>
     </g>
    </g>
   </g>
   <g id="LineCollection_3">
    <path d="M 278.184256 242.58255 
L 278.184256 241.330351 
" clip-path="url(#p1a7d55b77a)" style="fill: none; stroke: #13679e"/>
    <path d="M 269.595931 242.036017 
L 269.595931 239.626455 
" clip-path="url(#p1a7d55b77a)" style="fill: none; stroke: #13679e"/>
    <path d="M 259.855404 240.274489 
L 259.855404 238.07479 
" clip-path="url(#p1a7d55b77a)" style="fill: none; stroke: #13679e"/>
    <path d="M 248.6049 238.494712 
L 248.6049 236.510241 
" clip-path="url(#p1a7d55b77a)" style="fill: none; stroke: #13679e"/>
    <path d="M 235.288815 236.055459 
L 235.288815 233.847699 
" clip-path="url(#p1a7d55b77a)" style="fill: none; stroke: #13679e"/>
    <path d="M 218.974168 233.327553 
L 218.974168 227.923779 
" clip-path="url(#p1a7d55b77a)" style="fill: none; stroke: #13679e"/>
    <path d="M 197.905722 226.121737 
L 197.905722 221.956963 
" clip-path="url(#p1a7d55b77a)" style="fill: none; stroke: #13679e"/>
    <path d="M 168.118678 198.040984 
L 168.118678 160.901088 
" clip-path="url(#p1a7d55b77a)" style="fill: none; stroke: #13679e"/>
    <path d="M 160.355163 189.113398 
L 160.355163 143.112845 
" clip-path="url(#p1a7d55b77a)" style="fill: none; stroke: #13679e"/>
    <path d="M 151.662176 167.963513 
L 151.662176 72.992366 
" clip-path="url(#p1a7d55b77a)" style="fill: none; stroke: #13679e"/>
    <path d="M 141.786423 131.819882 
L 141.786423 76.266153 
" clip-path="url(#p1a7d55b77a)" style="fill: none; stroke: #13679e"/>
    <path d="M 130.35445 92.697592 
L 130.35445 76.46934 
" clip-path="url(#p1a7d55b77a)" style="fill: none; stroke: #13679e"/>
    <path d="M 116.782036 88.448197 
L 116.782036 60.918277 
" clip-path="url(#p1a7d55b77a)" style="fill: none; stroke: #13679e"/>
   </g>
   <g id="LineCollection_4">
    <path d="M 278.184256 236.196566 
L 278.184256 235.379628 
" clip-path="url(#p1a7d55b77a)" style="fill: none; stroke: #c00000"/>
    <path d="M 269.595931 236.493229 
L 269.595931 234.047888 
" clip-path="url(#p1a7d55b77a)" style="fill: none; stroke: #c00000"/>
    <path d="M 259.855404 235.501371 
L 259.855404 233.462875 
" clip-path="url(#p1a7d55b77a)" style="fill: none; stroke: #c00000"/>
    <path d="M 248.6049 234.183183 
L 248.6049 232.871261 
" clip-path="url(#p1a7d55b77a)" style="fill: none; stroke: #c00000"/>
    <path d="M 235.288815 232.900677 
L 235.288815 230.863499 
" clip-path="url(#p1a7d55b77a)" style="fill: none; stroke: #c00000"/>
    <path d="M 218.974168 230.81311 
L 218.974168 224.501005 
" clip-path="url(#p1a7d55b77a)" style="fill: none; stroke: #c00000"/>
    <path d="M 197.905722 222.829177 
L 197.905722 218.618211 
" clip-path="url(#p1a7d55b77a)" style="fill: none; stroke: #c00000"/>
    <path d="M 168.118678 194.429933 
L 168.118678 155.408258 
" clip-path="url(#p1a7d55b77a)" style="fill: none; stroke: #c00000"/>
    <path d="M 160.355163 185.416307 
L 160.355163 137.83883 
" clip-path="url(#p1a7d55b77a)" style="fill: none; stroke: #c00000"/>
    <path d="M 151.662176 161.09265 
L 151.662176 68.981875 
" clip-path="url(#p1a7d55b77a)" style="fill: none; stroke: #c00000"/>
    <path d="M 141.786423 124.251857 
L 141.786423 65.729005 
" clip-path="url(#p1a7d55b77a)" style="fill: none; stroke: #c00000"/>
    <path d="M 130.35445 89.870659 
L 130.35445 67.932201 
" clip-path="url(#p1a7d55b77a)" style="fill: none; stroke: #c00000"/>
    <path d="M 116.782036 83.706032 
L 116.782036 56.976454 
" clip-path="url(#p1a7d55b77a)" style="fill: none; stroke: #c00000"/>
   </g>
   <g id="line2d_47">
    <path d="M 278.184256 241.956451 
L 269.595931 240.831236 
L 259.855404 239.17464 
L 248.6049 237.502477 
L 235.288815 234.951579 
L 218.974168 230.625666 
L 197.905722 224.03935 
L 168.118678 179.471036 
L 160.355163 166.113121 
L 151.662176 120.47794 
L 141.786423 104.043018 
L 130.35445 84.583466 
L 116.782036 74.683237 
" clip-path="url(#p1a7d55b77a)" style="fill: none; stroke: #13679e; stroke-width: 1.5; stroke-linecap: square"/>
    <defs>
     <path id="m5a4470ca45" d="M -3 3 
L 3 3 
L 3 -3 
L -3 -3 
z
" style="stroke: #13679e; stroke-linejoin: miter"/>
    </defs>
    <g clip-path="url(#p1a7d55b77a)">
     <use xlink:href="#m5a4470ca45" x="278.184256" y="241.956451" style="fill-opacity: 0; stroke: #13679e; stroke-linejoin: miter"/>
     <use xlink:href="#m5a4470ca45" x="269.595931" y="240.831236" style="fill-opacity: 0; stroke: #13679e; stroke-linejoin: miter"/>
     <use xlink:href="#m5a4470ca45" x="259.855404" y="239.17464" style="fill-opacity: 0; stroke: #13679e; stroke-linejoin: miter"/>
     <use xlink:href="#m5a4470ca45" x="248.6049" y="237.502477" style="fill-opacity: 0; stroke: #13679e; stroke-linejoin: miter"/>
     <use xlink:href="#m5a4470ca45" x="235.288815" y="234.951579" style="fill-opacity: 0; stroke: #13679e; stroke-linejoin: miter"/>
     <use xlink:href="#m5a4470ca45" x="218.974168" y="230.625666" style="fill-opacity: 0; stroke: #13679e; stroke-linejoin: miter"/>
     <use xlink:href="#m5a4470ca45" x="197.905722" y="224.03935" style="fill-opacity: 0; stroke: #13679e; stroke-linejoin: miter"/>
     <use xlink:href="#m5a4470ca45" x="168.118678" y="179.471036" style="fill-opacity: 0; stroke: #13679e; stroke-linejoin: miter"/>
     <use xlink:href="#m5a4470ca45" x="160.355163" y="166.113121" style="fill-opacity: 0; stroke: #13679e; stroke-linejoin: miter"/>
     <use xlink:href="#m5a4470ca45" x="151.662176" y="120.47794" style="fill-opacity: 0; stroke: #13679e; stroke-linejoin: miter"/>
     <use xlink:href="#m5a4470ca45" x="141.786423" y="104.043018" style="fill-opacity: 0; stroke: #13679e; stroke-linejoin: miter"/>
     <use xlink:href="#m5a4470ca45" x="130.35445" y="84.583466" style="fill-opacity: 0; stroke: #13679e; stroke-linejoin: miter"/>
     <use xlink:href="#m5a4470ca45" x="116.782036" y="74.683237" style="fill-opacity: 0; stroke: #13679e; stroke-linejoin: miter"/>
    </g>
   </g>
   <g id="line2d_48">
    <path d="M 278.184256 235.788097 
L 269.595931 235.270558 
L 259.855404 234.482123 
L 248.6049 233.527222 
L 235.288815 231.882088 
L 218.974168 227.657057 
L 197.905722 220.723694 
L 168.118678 174.919096 
L 160.355163 161.627569 
L 151.662176 115.037262 
L 141.786423 94.990431 
L 130.35445 78.90143 
L 116.782036 70.341243 
" clip-path="url(#p1a7d55b77a)" style="fill: none; stroke: #c00000; stroke-width: 1.5; stroke-linecap: square"/>
    <defs>
     <path id="ma84b8b6f18" d="M -3 3 
L 3 3 
L 3 -3 
L -3 -3 
z
" style="stroke: #c00000; stroke-linejoin: miter"/>
    </defs>
    <g clip-path="url(#p1a7d55b77a)">
     <use xlink:href="#ma84b8b6f18" x="278.184256" y="235.788097" style="fill-opacity: 0; stroke: #c00000; stroke-linejoin: miter"/>
     <use xlink:href="#ma84b8b6f18" x="269.595931" y="235.270558" style="fill-opacity: 0; stroke: #c00000; stroke-linejoin: miter"/>
     <use xlink:href="#ma84b8b6f18" x="259.855404" y="234.482123" style="fill-opacity: 0; stroke: #c00000; stroke-linejoin: miter"/>
     <use xlink:href="#ma84b8b6f18" x="248.6049" y="233.527222" style="fill-opacity: 0; stroke: #c00000; stroke-linejoin: miter"/>
     <use xlink:href="#ma84b8b6f18" x="235.288815" y="231.882088" style="fill-opacity: 0; stroke: #c00000; stroke-linejoin: miter"/>
     <use xlink:href="#ma84b8b6f18" x="218.974168" y="227.657057" style="fill-opacity: 0; stroke: #c00000; stroke-linejoin: miter"/>
     <use xlink:href="#ma84b8b6f18" x="197.905722" y="220.723694" style="fill-opacity: 0; stroke: #c00000; stroke-linejoin: miter"/>
     <use xlink:href="#ma84b8b6f18" x="168.118678" y="174.919096" style="fill-opacity: 0; stroke: #c00000; stroke-linejoin: miter"/>
     <use xlink:href="#ma84b8b6f18" x="160.355163" y="161.627569" style="fill-opacity: 0; stroke: #c00000; stroke-linejoin: miter"/>
     <use xlink:href="#ma84b8b6f18" x="151.662176" y="115.037262" style="fill-opacity: 0; stroke: #c00000; stroke-linejoin: miter"/>
     <use xlink:href="#ma84b8b6f18" x="141.786423" y="94.990431" style="fill-opacity: 0; stroke: #c00000; stroke-linejoin: miter"/>
     <use xlink:href="#ma84b8b6f18" x="130.35445" y="78.90143" style="fill-opacity: 0; stroke: #c00000; stroke-linejoin: miter"/>
     <use xlink:href="#ma84b8b6f18" x="116.782036" y="70.341243" style="fill-opacity: 0; stroke: #c00000; stroke-linejoin: miter"/>
    </g>
   </g>
   <g id="patch_7">
    <path d="M 68.254149 251.564405 
L 68.254149 29.804405 
" style="fill: none; stroke: #000000; stroke-width: 0.8; stroke-linejoin: miter; stroke-linecap: square"/>
   </g>
   <g id="patch_8">
    <path d="M 319.354149 251.564405 
L 319.354149 29.804405 
" style="fill: none; stroke: #000000; stroke-width: 0.8; stroke-linejoin: miter; stroke-linecap: square"/>
   </g>
   <g id="patch_9">
    <path d="M 68.254149 251.564405 
L 319.354149 251.564405 
" style="fill: none; stroke: #000000; stroke-width: 0.8; stroke-linejoin: miter; stroke-linecap: square"/>
   </g>
   <g id="patch_10">
    <path d="M 68.254149 29.804405 
L 319.354149 29.804405 
" style="fill: none; stroke: #000000; stroke-width: 0.8; stroke-linejoin: miter; stroke-linecap: square"/>
   </g>
   <g id="text_24">
    <!-- $s$ -->
    <g transform="translate(188.290143 23.804405) scale(0.24 -0.24)">
     <defs>
      <path id="CMMI12-73" d="M 1459 1290 
C 1568 1271 1741 1233 1779 1227 
C 1862 1201 2150 1099 2150 793 
C 2150 595 1971 64 1229 64 
C 1094 64 614 83 486 447 
C 742 414 870 614 870 755 
C 870 889 781 960 653 960 
C 512 960 326 851 326 563 
C 326 176 710 -64 1222 -64 
C 2195 -64 2483 665 2483 998 
C 2483 1093 2483 1271 2278 1475 
C 2118 1627 1965 1659 1619 1729 
C 1446 1767 1171 1824 1171 2111 
C 1171 2239 1286 2687 1894 2687 
C 2163 2687 2426 2589 2490 2368 
C 2208 2368 2195 2124 2195 2118 
C 2195 1983 2317 1945 2374 1945 
C 2464 1945 2643 2015 2643 2284 
C 2643 2546 2400 2816 1901 2816 
C 1062 2816 838 2169 838 1907 
C 838 1424 1312 1322 1459 1290 
z
" transform="scale(0.015625)"/>
     </defs>
     <use xlink:href="#CMMI12-73" transform="scale(0.996264)"/>
    </g>
   </g>
  </g>
  <g id="legend_1">
   <g id="patch_11">
    <path d="M 188.592872 155.328381 
L 289.674149 155.328381 
Q 291.674149 155.328381 291.674149 153.328381 
L 291.674149 96.36043 
Q 291.674149 94.36043 289.674149 94.36043 
L 188.592872 94.36043 
Q 186.592872 94.36043 186.592872 96.36043 
L 186.592872 153.328381 
Q 186.592872 155.328381 188.592872 155.328381 
z
" style="fill: #ffffff; opacity: 0.8; stroke: #cccccc; stroke-linejoin: miter"/>
   </g>
   <g id="LineCollection_5">
    <path d="M 200.592872 107.970049 
L 200.592872 97.970049 
" style="fill: none; stroke: #13679e"/>
   </g>
   <g id="line2d_49">
    <path d="M 190.592872 102.970049 
L 210.592872 102.970049 
" style="fill: none; stroke: #13679e; stroke-width: 1.5; stroke-linecap: square"/>
   </g>
   <g id="line2d_50">
    <g>
     <use xlink:href="#m71bfdd8550" x="200.592872" y="102.970049" style="fill-opacity: 0; stroke: #13679e"/>
    </g>
   </g>
   <g id="text_25">
    <!-- Testing-1 $R^2$ -->
    <g transform="translate(218.592872 106.470049) scale(0.1 -0.1)">
     <defs>
      <path id="CMR17-2d" d="M 1632 1254 
L 1632 1536 
L 26 1536 
L 26 1254 
L 1632 1254 
z
" transform="scale(0.015625)"/>
     </defs>
     <use xlink:href="#CMR17-54" transform="scale(0.996264)"/>
     <use xlink:href="#CMR17-65" transform="translate(58.702625 0) scale(0.996264)"/>
     <use xlink:href="#CMR17-73" transform="translate(99.188286 0) scale(0.996264)"/>
     <use xlink:href="#CMR17-74" transform="translate(134.989623 0) scale(0.996264)"/>
     <use xlink:href="#CMR17-69" transform="translate(170.270391 0) scale(0.996264)"/>
     <use xlink:href="#CMR17-6e" transform="translate(195.14145 0) scale(0.996264)"/>
     <use xlink:href="#CMR17-67" transform="translate(246.036819 0) scale(0.996264)"/>
     <use xlink:href="#CMR17-2d" transform="translate(291.727296 0) scale(0.996264)"/>
     <use xlink:href="#CMR17-31" transform="translate(321.803263 0) scale(0.996264)"/>
     <use xlink:href="#CMMI12-52" transform="translate(397.569706 0) scale(0.996264)"/>
     <use xlink:href="#CMR17-32" transform="translate(472.640668 36.153639) scale(0.697382)"/>
    </g>
   </g>
   <g id="LineCollection_6">
    <path d="M 200.592872 123.016846 
L 200.592872 113.016846 
" style="fill: none; stroke: #c00000"/>
   </g>
   <g id="line2d_51">
    <path d="M 190.592872 118.016846 
L 210.592872 118.016846 
" style="fill: none; stroke: #c00000; stroke-width: 1.5; stroke-linecap: square"/>
   </g>
   <g id="line2d_52">
    <g>
     <use xlink:href="#m5bb87eae22" x="200.592872" y="118.016846" style="fill-opacity: 0; stroke: #c00000"/>
    </g>
   </g>
   <g id="text_26">
    <!-- Testing-2 $R^2$ -->
    <g transform="translate(218.592872 121.516846) scale(0.1 -0.1)">
     <use xlink:href="#CMR17-54" transform="scale(0.996264)"/>
     <use xlink:href="#CMR17-65" transform="translate(58.702625 0) scale(0.996264)"/>
     <use xlink:href="#CMR17-73" transform="translate(99.188286 0) scale(0.996264)"/>
     <use xlink:href="#CMR17-74" transform="translate(134.989623 0) scale(0.996264)"/>
     <use xlink:href="#CMR17-69" transform="translate(170.270391 0) scale(0.996264)"/>
     <use xlink:href="#CMR17-6e" transform="translate(195.14145 0) scale(0.996264)"/>
     <use xlink:href="#CMR17-67" transform="translate(246.036819 0) scale(0.996264)"/>
     <use xlink:href="#CMR17-2d" transform="translate(291.727296 0) scale(0.996264)"/>
     <use xlink:href="#CMR17-32" transform="translate(321.803263 0) scale(0.996264)"/>
     <use xlink:href="#CMMI12-52" transform="translate(397.569706 0) scale(0.996264)"/>
     <use xlink:href="#CMR17-32" transform="translate(472.640668 36.153639) scale(0.697382)"/>
    </g>
   </g>
   <g id="LineCollection_7">
    <path d="M 200.592872 136.954024 
L 200.592872 126.954024 
" style="fill: none; stroke: #13679e"/>
   </g>
   <g id="line2d_53">
    <path d="M 190.592872 131.954024 
L 210.592872 131.954024 
" style="fill: none; stroke: #13679e; stroke-width: 1.5; stroke-linecap: square"/>
   </g>
   <g id="line2d_54">
    <g>
     <use xlink:href="#m5a4470ca45" x="200.592872" y="131.954024" style="fill-opacity: 0; stroke: #13679e; stroke-linejoin: miter"/>
    </g>
   </g>
   <g id="text_27">
    <!-- Testing-1 $MAE$ -->
    <g transform="translate(218.592872 135.454024) scale(0.1 -0.1)">
     <use xlink:href="#CMR17-54" transform="scale(0.996264)"/>
     <use xlink:href="#CMR17-65" transform="translate(58.702625 0) scale(0.996264)"/>
     <use xlink:href="#CMR17-73" transform="translate(99.188286 0) scale(0.996264)"/>
     <use xlink:href="#CMR17-74" transform="translate(134.989623 0) scale(0.996264)"/>
     <use xlink:href="#CMR17-69" transform="translate(170.270391 0) scale(0.996264)"/>
     <use xlink:href="#CMR17-6e" transform="translate(195.14145 0) scale(0.996264)"/>
     <use xlink:href="#CMR17-67" transform="translate(246.036819 0) scale(0.996264)"/>
     <use xlink:href="#CMR17-2d" transform="translate(291.727296 0) scale(0.996264)"/>
     <use xlink:href="#CMR17-31" transform="translate(321.803263 0) scale(0.996264)"/>
     <use xlink:href="#CMMI12-4d" transform="translate(397.569706 0) scale(0.996264)"/>
     <use xlink:href="#CMMI12-41" transform="translate(502.349785 0) scale(0.996264)"/>
     <use xlink:href="#CMMI12-45" transform="translate(575.47767 0) scale(0.996264)"/>
    </g>
   </g>
   <g id="LineCollection_8">
    <path d="M 200.592872 150.891202 
L 200.592872 140.891202 
" style="fill: none; stroke: #c00000"/>
   </g>
   <g id="line2d_55">
    <path d="M 190.592872 145.891202 
L 210.592872 145.891202 
" style="fill: none; stroke: #c00000; stroke-width: 1.5; stroke-linecap: square"/>
   </g>
   <g id="line2d_56">
    <g>
     <use xlink:href="#ma84b8b6f18" x="200.592872" y="145.891202" style="fill-opacity: 0; stroke: #c00000; stroke-linejoin: miter"/>
    </g>
   </g>
   <g id="text_28">
    <!-- Testing-2 $MAE$ -->
    <g transform="translate(218.592872 149.391202) scale(0.1 -0.1)">
     <use xlink:href="#CMR17-54" transform="scale(0.996264)"/>
     <use xlink:href="#CMR17-65" transform="translate(58.702625 0) scale(0.996264)"/>
     <use xlink:href="#CMR17-73" transform="translate(99.188286 0) scale(0.996264)"/>
     <use xlink:href="#CMR17-74" transform="translate(134.989623 0) scale(0.996264)"/>
     <use xlink:href="#CMR17-69" transform="translate(170.270391 0) scale(0.996264)"/>
     <use xlink:href="#CMR17-6e" transform="translate(195.14145 0) scale(0.996264)"/>
     <use xlink:href="#CMR17-67" transform="translate(246.036819 0) scale(0.996264)"/>
     <use xlink:href="#CMR17-2d" transform="translate(291.727296 0) scale(0.996264)"/>
     <use xlink:href="#CMR17-32" transform="translate(321.803263 0) scale(0.996264)"/>
     <use xlink:href="#CMMI12-4d" transform="translate(397.569706 0) scale(0.996264)"/>
     <use xlink:href="#CMMI12-41" transform="translate(502.349785 0) scale(0.996264)"/>
     <use xlink:href="#CMMI12-45" transform="translate(575.47767 0) scale(0.996264)"/>
    </g>
   </g>
  </g>
 </g>
 <defs>
  <clipPath id="p1a7d55b77a">
   <rect x="68.254149" y="29.804405" width="251.1" height="221.76"/>
  </clipPath>
 </defs>
</svg>
