<?xml version="1.0" encoding="utf-8" standalone="no"?>
<!DOCTYPE svg PUBLIC "-//W3C//DTD SVG 1.1//EN"
  "http://www.w3.org/Graphics/SVG/1.1/DTD/svg11.dtd">
<svg xmlns:xlink="http://www.w3.org/1999/xlink" width="362.812305pt" height="301.6461pt" viewBox="0 0 362.812305 301.6461" xmlns="http://www.w3.org/2000/svg" version="1.1">
 <metadata>
  <rdf:RDF xmlns:dc="http://purl.org/dc/elements/1.1/" xmlns:cc="http://creativecommons.org/ns#" xmlns:rdf="http://www.w3.org/1999/02/22-rdf-syntax-ns#">
   <cc:Work>
    <dc:type rdf:resource="http://purl.org/dc/dcmitype/StillImage"/>
    <dc:date>2024-12-09T14:41:58.984289</dc:date>
    <dc:format>image/svg+xml</dc:format>
    <dc:creator>
     <cc:Agent>
      <dc:title>Matplotlib v3.7.1, https://matplotlib.org/</dc:title>
     </cc:Agent>
    </dc:creator>
   </cc:Work>
  </rdf:RDF>
 </metadata>
 <defs>
  <style type="text/css">*{stroke-linejoin: round; stroke-linecap: butt}</style>
 </defs>
 <g id="figure_1">
  <g id="patch_1">
   <path d="M -0 301.6461 
L 362.812305 301.6461 
L 362.812305 0 
L -0 0 
z
" style="fill: #ffffff"/>
  </g>
  <g id="axes_1">
   <g id="patch_2">
    <path d="M 55.856153 251.564405 
L 306.956153 251.564405 
L 306.956153 29.804405 
L 55.856153 29.804405 
z
" style="fill: #ffffff"/>
   </g>
   <g id="matplotlib.axis_1">
    <g id="xtick_1">
     <g id="line2d_1">
      <defs>
       <path id="m53f083bcd3" d="M 0 0 
L 0 3.5 
" style="stroke: #000000; stroke-width: 0.8"/>
      </defs>
      <g>
       <use xlink:href="#m53f083bcd3" x="55.856153" y="251.564405" style="stroke: #000000; stroke-width: 0.8"/>
      </g>
     </g>
     <g id="text_1">
      <!-- $\mathdefault{10^{2}}$ -->
      <g transform="translate(45.262631 269.633994) scale(0.16 -0.16)">
       <defs>
        <path id="CMR17-31" d="M 1702 4083 
C 1702 4217 1696 4224 1606 4224 
C 1357 3927 979 3833 621 3820 
C 602 3820 570 3820 563 3808 
C 557 3795 557 3782 557 3648 
C 755 3648 1088 3686 1344 3839 
L 1344 467 
C 1344 243 1331 166 781 166 
L 589 166 
L 589 0 
C 896 6 1216 12 1523 12 
C 1830 12 2150 6 2458 0 
L 2458 166 
L 2266 166 
C 1715 166 1702 236 1702 467 
L 1702 4083 
z
" transform="scale(0.015625)"/>
        <path id="CMR17-30" d="M 2688 2038 
C 2688 2430 2682 3099 2413 3613 
C 2176 4063 1798 4224 1466 4224 
C 1158 4224 768 4082 525 3620 
C 269 3137 243 2539 243 2038 
C 243 1671 250 1112 448 623 
C 723 -39 1216 -128 1466 -128 
C 1760 -128 2208 -7 2470 604 
C 2662 1048 2688 1568 2688 2038 
z
M 1466 -26 
C 1056 -26 813 328 723 816 
C 653 1196 653 1749 653 2109 
C 653 2604 653 3015 736 3407 
C 858 3954 1216 4121 1466 4121 
C 1728 4121 2067 3947 2189 3420 
C 2272 3054 2278 2623 2278 2109 
C 2278 1691 2278 1176 2202 797 
C 2067 96 1690 -26 1466 -26 
z
" transform="scale(0.015625)"/>
        <path id="CMR17-32" d="M 2669 990 
L 2554 990 
C 2490 537 2438 460 2413 422 
C 2381 371 1920 371 1830 371 
L 602 371 
C 832 620 1280 1073 1824 1596 
C 2214 1966 2669 2400 2669 3033 
C 2669 3788 2067 4224 1395 4224 
C 691 4224 262 3603 262 3027 
C 262 2777 448 2745 525 2745 
C 589 2745 781 2783 781 3007 
C 781 3206 614 3264 525 3264 
C 486 3264 448 3257 422 3244 
C 544 3788 915 4057 1306 4057 
C 1862 4057 2227 3616 2227 3033 
C 2227 2477 1901 1998 1536 1583 
L 262 147 
L 262 0 
L 2515 0 
L 2669 990 
z
" transform="scale(0.015625)"/>
       </defs>
       <use xlink:href="#CMR17-31" transform="scale(0.996264)"/>
       <use xlink:href="#CMR17-30" transform="translate(45.690477 0) scale(0.996264)"/>
       <use xlink:href="#CMR17-32" transform="translate(91.380954 36.153639) scale(0.697382)"/>
      </g>
     </g>
    </g>
    <g id="xtick_2">
     <g id="line2d_2">
      <g>
       <use xlink:href="#m53f083bcd3" x="139.556153" y="251.564405" style="stroke: #000000; stroke-width: 0.8"/>
      </g>
     </g>
     <g id="text_2">
      <!-- $\mathdefault{10^{3}}$ -->
      <g transform="translate(128.962631 269.633994) scale(0.16 -0.16)">
       <defs>
        <path id="CMR17-33" d="M 1414 2176 
C 1984 2176 2234 1673 2234 1094 
C 2234 322 1824 25 1453 25 
C 1114 25 563 193 390 691 
C 422 678 454 678 486 678 
C 640 678 755 780 755 947 
C 755 1132 614 1216 486 1216 
C 378 1216 211 1164 211 927 
C 211 335 787 -128 1466 -128 
C 2176 -128 2720 432 2720 1087 
C 2720 1718 2208 2176 1600 2246 
C 2086 2347 2554 2776 2554 3353 
C 2554 3856 2048 4224 1472 4224 
C 890 4224 378 3862 378 3347 
C 378 3123 544 3084 627 3084 
C 762 3084 877 3167 877 3334 
C 877 3500 762 3584 627 3584 
C 602 3584 570 3584 544 3571 
C 730 3999 1235 4076 1459 4076 
C 1683 4076 2106 3966 2106 3347 
C 2106 3167 2080 2851 1862 2574 
C 1670 2329 1453 2316 1242 2297 
C 1210 2297 1062 2284 1037 2284 
C 992 2278 966 2272 966 2227 
C 966 2182 973 2176 1101 2176 
L 1414 2176 
z
" transform="scale(0.015625)"/>
       </defs>
       <use xlink:href="#CMR17-31" transform="scale(0.996264)"/>
       <use xlink:href="#CMR17-30" transform="translate(45.690477 0) scale(0.996264)"/>
       <use xlink:href="#CMR17-33" transform="translate(91.380954 36.153639) scale(0.697382)"/>
      </g>
     </g>
    </g>
    <g id="xtick_3">
     <g id="line2d_3">
      <g>
       <use xlink:href="#m53f083bcd3" x="223.256153" y="251.564405" style="stroke: #000000; stroke-width: 0.8"/>
      </g>
     </g>
     <g id="text_3">
      <!-- $\mathdefault{10^{4}}$ -->
      <g transform="translate(212.662631 269.633994) scale(0.16 -0.16)">
       <defs>
        <path id="CMR17-34" d="M 2150 4147 
C 2150 4281 2144 4288 2029 4288 
L 128 1254 
L 128 1088 
L 1779 1088 
L 1779 460 
C 1779 230 1766 166 1318 166 
L 1197 166 
L 1197 0 
C 1402 12 1747 12 1965 12 
C 2182 12 2528 12 2733 0 
L 2733 166 
L 2611 166 
C 2163 166 2150 230 2150 460 
L 2150 1088 
L 2803 1088 
L 2803 1254 
L 2150 1254 
L 2150 4147 
z
M 1798 3723 
L 1798 1254 
L 256 1254 
L 1798 3723 
z
" transform="scale(0.015625)"/>
       </defs>
       <use xlink:href="#CMR17-31" transform="scale(0.996264)"/>
       <use xlink:href="#CMR17-30" transform="translate(45.690477 0) scale(0.996264)"/>
       <use xlink:href="#CMR17-34" transform="translate(91.380954 36.153639) scale(0.697382)"/>
      </g>
     </g>
    </g>
    <g id="xtick_4">
     <g id="line2d_4">
      <g>
       <use xlink:href="#m53f083bcd3" x="306.956153" y="251.564405" style="stroke: #000000; stroke-width: 0.8"/>
      </g>
     </g>
     <g id="text_4">
      <!-- $\mathdefault{10^{5}}$ -->
      <g transform="translate(296.362631 269.633994) scale(0.16 -0.16)">
       <defs>
        <path id="CMR17-35" d="M 730 3750 
C 794 3724 1056 3641 1325 3641 
C 1920 3641 2246 3961 2432 4140 
C 2432 4191 2432 4224 2394 4224 
C 2387 4224 2374 4224 2323 4198 
C 2099 4102 1837 4032 1517 4032 
C 1325 4032 1037 4055 723 4191 
C 653 4224 640 4224 634 4224 
C 602 4224 595 4217 595 4090 
L 595 2231 
C 595 2113 595 2080 659 2080 
C 691 2080 704 2093 736 2139 
C 941 2435 1222 2560 1542 2560 
C 1766 2560 2246 2415 2246 1293 
C 2246 1087 2246 716 2054 422 
C 1894 159 1645 25 1370 25 
C 947 25 518 319 403 812 
C 429 806 480 793 506 793 
C 589 793 749 838 749 1036 
C 749 1209 627 1280 506 1280 
C 358 1280 262 1190 262 1011 
C 262 454 704 -128 1382 -128 
C 2042 -128 2669 441 2669 1267 
C 2669 2054 2170 2662 1549 2662 
C 1222 2662 947 2540 730 2304 
L 730 3750 
z
" transform="scale(0.015625)"/>
       </defs>
       <use xlink:href="#CMR17-31" transform="scale(0.996264)"/>
       <use xlink:href="#CMR17-30" transform="translate(45.690477 0) scale(0.996264)"/>
       <use xlink:href="#CMR17-35" transform="translate(91.380954 36.153639) scale(0.697382)"/>
      </g>
     </g>
    </g>
    <g id="xtick_5">
     <g id="line2d_5">
      <defs>
       <path id="ma7e3aaac3f" d="M 0 0 
L 0 2 
" style="stroke: #000000; stroke-width: 0.6"/>
      </defs>
      <g>
       <use xlink:href="#ma7e3aaac3f" x="81.052363" y="251.564405" style="stroke: #000000; stroke-width: 0.6"/>
      </g>
     </g>
    </g>
    <g id="xtick_6">
     <g id="line2d_6">
      <g>
       <use xlink:href="#ma7e3aaac3f" x="95.791202" y="251.564405" style="stroke: #000000; stroke-width: 0.6"/>
      </g>
     </g>
    </g>
    <g id="xtick_7">
     <g id="line2d_7">
      <g>
       <use xlink:href="#ma7e3aaac3f" x="106.248574" y="251.564405" style="stroke: #000000; stroke-width: 0.6"/>
      </g>
     </g>
    </g>
    <g id="xtick_8">
     <g id="line2d_8">
      <g>
       <use xlink:href="#ma7e3aaac3f" x="114.359942" y="251.564405" style="stroke: #000000; stroke-width: 0.6"/>
      </g>
     </g>
    </g>
    <g id="xtick_9">
     <g id="line2d_9">
      <g>
       <use xlink:href="#ma7e3aaac3f" x="120.987412" y="251.564405" style="stroke: #000000; stroke-width: 0.6"/>
      </g>
     </g>
    </g>
    <g id="xtick_10">
     <g id="line2d_10">
      <g>
       <use xlink:href="#ma7e3aaac3f" x="126.590859" y="251.564405" style="stroke: #000000; stroke-width: 0.6"/>
      </g>
     </g>
    </g>
    <g id="xtick_11">
     <g id="line2d_11">
      <g>
       <use xlink:href="#ma7e3aaac3f" x="131.444785" y="251.564405" style="stroke: #000000; stroke-width: 0.6"/>
      </g>
     </g>
    </g>
    <g id="xtick_12">
     <g id="line2d_12">
      <g>
       <use xlink:href="#ma7e3aaac3f" x="135.726251" y="251.564405" style="stroke: #000000; stroke-width: 0.6"/>
      </g>
     </g>
    </g>
    <g id="xtick_13">
     <g id="line2d_13">
      <g>
       <use xlink:href="#ma7e3aaac3f" x="164.752363" y="251.564405" style="stroke: #000000; stroke-width: 0.6"/>
      </g>
     </g>
    </g>
    <g id="xtick_14">
     <g id="line2d_14">
      <g>
       <use xlink:href="#ma7e3aaac3f" x="179.491202" y="251.564405" style="stroke: #000000; stroke-width: 0.6"/>
      </g>
     </g>
    </g>
    <g id="xtick_15">
     <g id="line2d_15">
      <g>
       <use xlink:href="#ma7e3aaac3f" x="189.948574" y="251.564405" style="stroke: #000000; stroke-width: 0.6"/>
      </g>
     </g>
    </g>
    <g id="xtick_16">
     <g id="line2d_16">
      <g>
       <use xlink:href="#ma7e3aaac3f" x="198.059942" y="251.564405" style="stroke: #000000; stroke-width: 0.6"/>
      </g>
     </g>
    </g>
    <g id="xtick_17">
     <g id="line2d_17">
      <g>
       <use xlink:href="#ma7e3aaac3f" x="204.687412" y="251.564405" style="stroke: #000000; stroke-width: 0.6"/>
      </g>
     </g>
    </g>
    <g id="xtick_18">
     <g id="line2d_18">
      <g>
       <use xlink:href="#ma7e3aaac3f" x="210.290859" y="251.564405" style="stroke: #000000; stroke-width: 0.6"/>
      </g>
     </g>
    </g>
    <g id="xtick_19">
     <g id="line2d_19">
      <g>
       <use xlink:href="#ma7e3aaac3f" x="215.144785" y="251.564405" style="stroke: #000000; stroke-width: 0.6"/>
      </g>
     </g>
    </g>
    <g id="xtick_20">
     <g id="line2d_20">
      <g>
       <use xlink:href="#ma7e3aaac3f" x="219.426251" y="251.564405" style="stroke: #000000; stroke-width: 0.6"/>
      </g>
     </g>
    </g>
    <g id="xtick_21">
     <g id="line2d_21">
      <g>
       <use xlink:href="#ma7e3aaac3f" x="248.452363" y="251.564405" style="stroke: #000000; stroke-width: 0.6"/>
      </g>
     </g>
    </g>
    <g id="xtick_22">
     <g id="line2d_22">
      <g>
       <use xlink:href="#ma7e3aaac3f" x="263.191202" y="251.564405" style="stroke: #000000; stroke-width: 0.6"/>
      </g>
     </g>
    </g>
    <g id="xtick_23">
     <g id="line2d_23">
      <g>
       <use xlink:href="#ma7e3aaac3f" x="273.648574" y="251.564405" style="stroke: #000000; stroke-width: 0.6"/>
      </g>
     </g>
    </g>
    <g id="xtick_24">
     <g id="line2d_24">
      <g>
       <use xlink:href="#ma7e3aaac3f" x="281.759942" y="251.564405" style="stroke: #000000; stroke-width: 0.6"/>
      </g>
     </g>
    </g>
    <g id="xtick_25">
     <g id="line2d_25">
      <g>
       <use xlink:href="#ma7e3aaac3f" x="288.387412" y="251.564405" style="stroke: #000000; stroke-width: 0.6"/>
      </g>
     </g>
    </g>
    <g id="xtick_26">
     <g id="line2d_26">
      <g>
       <use xlink:href="#ma7e3aaac3f" x="293.990859" y="251.564405" style="stroke: #000000; stroke-width: 0.6"/>
      </g>
     </g>
    </g>
    <g id="xtick_27">
     <g id="line2d_27">
      <g>
       <use xlink:href="#ma7e3aaac3f" x="298.844785" y="251.564405" style="stroke: #000000; stroke-width: 0.6"/>
      </g>
     </g>
    </g>
    <g id="xtick_28">
     <g id="line2d_28">
      <g>
       <use xlink:href="#ma7e3aaac3f" x="303.126251" y="251.564405" style="stroke: #000000; stroke-width: 0.6"/>
      </g>
     </g>
    </g>
    <g id="text_5">
     <!-- Size of Training Dataset -->
     <g transform="translate(84.841208 290.570466) scale(0.2 -0.2)">
      <defs>
       <path id="CMR17-53" d="M 2803 4351 
C 2803 4467 2797 4473 2758 4473 
C 2720 4473 2707 4447 2682 4390 
L 2490 3965 
C 2246 4320 1875 4480 1472 4480 
C 819 4480 294 3958 294 3301 
C 294 3101 339 2817 557 2546 
C 794 2250 1018 2198 1530 2063 
C 1722 2011 2042 1927 2106 1901 
C 2470 1747 2662 1360 2662 999 
C 2662 534 2336 38 1779 38 
C 1094 38 454 425 410 1328 
C 403 1431 397 1437 352 1437 
C 301 1437 294 1431 294 1302 
L 294 0 
C 294 -116 301 -122 339 -122 
C 384 -122 397 -90 486 109 
C 493 128 493 141 614 386 
C 934 -39 1472 -128 1779 -128 
C 2477 -128 2970 457 2970 1141 
C 2970 1476 2848 1734 2778 1850 
C 2509 2263 2221 2340 1914 2417 
C 1869 2437 1856 2437 1498 2527 
C 1152 2617 1005 2662 845 2836 
C 666 3036 602 3243 602 3449 
C 602 3868 934 4326 1478 4326 
C 2157 4326 2579 3842 2675 3036 
C 2694 2920 2701 2914 2746 2914 
C 2803 2914 2803 2933 2803 3043 
L 2803 4351 
z
" transform="scale(0.015625)"/>
       <path id="CMR17-69" d="M 992 3961 
C 992 4102 877 4224 730 4224 
C 589 4224 467 4108 467 3961 
C 467 3820 582 3699 730 3699 
C 870 3699 992 3814 992 3961 
z
M 243 2745 
L 243 2579 
C 602 2579 653 2540 653 2231 
L 653 443 
C 653 198 627 166 218 166 
L 218 0 
C 371 12 646 12 806 12 
C 960 12 1222 12 1370 0 
L 1370 166 
C 992 166 979 205 979 436 
L 979 2816 
L 243 2745 
z
" transform="scale(0.015625)"/>
       <path id="CMR17-7a" d="M 2310 2604 
C 2362 2668 2362 2681 2362 2694 
C 2362 2752 2336 2752 2221 2752 
L 275 2752 
L 211 1760 
L 326 1760 
C 371 2380 442 2649 1178 2649 
L 1958 2649 
L 128 96 
C 128 6 134 0 269 0 
L 2291 0 
L 2381 1152 
L 2266 1152 
C 2214 441 2131 115 1350 115 
L 531 115 
L 2310 2604 
z
" transform="scale(0.015625)"/>
       <path id="CMR17-65" d="M 2438 1503 
C 2464 1529 2464 1542 2464 1606 
C 2464 2251 2118 2816 1389 2816 
C 710 2816 173 2175 173 1394 
C 173 554 781 -64 1459 -64 
C 2176 -64 2458 619 2458 755 
C 2458 800 2419 800 2406 800 
C 2362 800 2355 787 2330 709 
C 2189 270 1837 51 1504 51 
C 1229 51 954 206 781 490 
C 582 819 582 1200 582 1503 
L 2438 1503 
z
M 589 1600 
C 634 2511 1126 2713 1382 2713 
C 1818 2713 2112 2308 2118 1600 
L 589 1600 
z
" transform="scale(0.015625)"/>
       <path id="CMR17-6f" d="M 2758 1356 
C 2758 2176 2163 2816 1466 2816 
C 768 2816 173 2176 173 1356 
C 173 550 768 -64 1466 -64 
C 2163 -64 2758 550 2758 1356 
z
M 1466 51 
C 1165 51 909 230 762 480 
C 602 768 582 1126 582 1408 
C 582 1676 595 2009 762 2297 
C 890 2508 1139 2713 1466 2713 
C 1754 2713 1997 2553 2150 2329 
C 2349 2028 2349 1606 2349 1408 
C 2349 1158 2336 774 2163 467 
C 1984 172 1709 51 1466 51 
z
" transform="scale(0.015625)"/>
       <path id="CMR17-66" d="M 979 2585 
L 1709 2585 
L 1709 2752 
L 966 2752 
L 966 3539 
C 966 4076 1235 4377 1510 4377 
C 1594 4377 1690 4363 1754 4339 
C 1702 4326 1568 4281 1568 4121 
C 1568 3955 1696 3904 1786 3904 
C 1875 3904 2003 3955 2003 4121 
C 2003 4353 1773 4480 1517 4480 
C 1152 4480 653 4211 653 3526 
L 653 2752 
L 141 2752 
L 141 2585 
L 653 2585 
L 653 441 
C 653 198 627 166 218 166 
L 218 0 
C 371 12 666 12 832 12 
C 1018 12 1344 12 1517 0 
L 1517 166 
C 1056 166 979 166 979 454 
L 979 2585 
z
" transform="scale(0.015625)"/>
       <path id="CMR17-54" d="M 3981 4332 
L 288 4332 
L 179 2924 
L 294 2924 
C 378 3981 467 4166 1453 4166 
C 1568 4166 1754 4166 1805 4159 
C 1926 4140 1926 4064 1926 3917 
L 1926 465 
C 1926 236 1907 166 1376 166 
L 1197 166 
L 1197 0 
C 1504 6 1824 12 2138 12 
C 2451 12 2771 6 3078 0 
L 3078 166 
L 2899 166 
C 2368 166 2349 236 2349 465 
L 2349 3917 
C 2349 4057 2349 4134 2464 4159 
C 2515 4166 2701 4166 2816 4166 
C 3795 4166 3891 3981 3974 2924 
L 4090 2924 
L 3981 4332 
z
" transform="scale(0.015625)"/>
       <path id="CMR17-72" d="M 960 1517 
C 960 2134 1222 2713 1702 2713 
C 1747 2713 1792 2707 1837 2687 
C 1837 2687 1696 2642 1696 2475 
C 1696 2321 1818 2257 1914 2257 
C 1990 2257 2131 2302 2131 2482 
C 2131 2687 1926 2816 1709 2816 
C 1222 2816 1011 2340 947 2115 
L 941 2115 
L 941 2816 
L 198 2745 
L 198 2578 
C 576 2578 634 2540 634 2231 
L 634 443 
C 634 198 608 166 198 166 
L 198 0 
C 352 12 646 12 813 12 
C 998 12 1325 12 1498 0 
L 1498 166 
C 1037 166 960 166 960 455 
L 960 1517 
z
" transform="scale(0.015625)"/>
       <path id="CMR17-61" d="M 2304 1656 
C 2304 2048 2304 2275 2035 2534 
C 1798 2751 1523 2816 1306 2816 
C 800 2816 435 2408 435 1977 
C 435 1740 627 1728 666 1728 
C 749 1728 896 1779 896 1958 
C 896 2118 774 2188 666 2188 
C 640 2188 608 2182 589 2176 
C 723 2594 1069 2713 1293 2713 
C 1613 2713 1965 2421 1965 1875 
L 1965 1632 
C 1587 1619 1133 1568 774 1373 
C 371 1147 256 822 256 576 
C 256 77 832 -64 1171 -64 
C 1523 -64 1850 135 1990 505 
C 2003 219 2182 -39 2464 -39 
C 2598 -39 2938 51 2938 563 
L 2938 926 
L 2822 926 
L 2822 557 
C 2822 161 2650 109 2566 109 
C 2304 109 2304 446 2304 732 
L 2304 1656 
z
M 1965 887 
C 1965 323 1568 38 1216 38 
C 896 38 646 278 646 576 
C 646 771 730 1114 1101 1322 
C 1408 1497 1760 1523 1965 1536 
L 1965 887 
z
" transform="scale(0.015625)"/>
       <path id="CMR17-6e" d="M 2656 1954 
C 2656 2282 2592 2816 1837 2816 
C 1331 2816 1069 2424 973 2166 
L 966 2166 
L 966 2816 
L 211 2745 
L 211 2578 
C 589 2578 646 2540 646 2231 
L 646 443 
C 646 198 621 166 211 166 
L 211 0 
C 365 12 646 12 813 12 
C 979 12 1267 12 1421 0 
L 1421 166 
C 1011 166 986 192 986 443 
L 986 1678 
C 986 2269 1344 2713 1792 2713 
C 2266 2713 2317 2289 2317 1980 
L 2317 443 
C 2317 198 2291 166 1882 166 
L 1882 0 
C 2035 12 2317 12 2483 12 
C 2650 12 2938 12 3091 0 
L 3091 166 
C 2682 166 2656 192 2656 443 
L 2656 1954 
z
" transform="scale(0.015625)"/>
       <path id="CMR17-67" d="M 710 1165 
C 832 1068 1043 960 1299 960 
C 1805 960 2240 1359 2240 1895 
C 2240 2063 2189 2321 1997 2521 
C 2176 2713 2438 2777 2586 2777 
C 2611 2777 2650 2777 2682 2758 
C 2656 2751 2598 2726 2598 2623 
C 2598 2540 2656 2483 2739 2483 
C 2835 2483 2886 2547 2886 2630 
C 2886 2751 2790 2880 2586 2880 
C 2330 2880 2106 2758 1926 2591 
C 1734 2764 1504 2828 1299 2828 
C 794 2828 358 2431 358 1895 
C 358 1527 570 1294 634 1230 
C 442 1004 442 742 442 710 
C 442 544 506 300 723 166 
C 390 82 128 -184 128 -517 
C 128 -996 736 -1344 1466 -1344 
C 2170 -1344 2803 -1009 2803 -510 
C 2803 384 1856 384 1363 384 
C 1216 384 954 384 922 390 
C 723 422 589 601 589 825 
C 589 883 589 1024 710 1165 
z
M 1299 1068 
C 736 1068 736 1766 736 1895 
C 736 2024 736 2719 1299 2719 
C 1862 2719 1862 2024 1862 1895 
C 1862 1766 1862 1068 1299 1068 
z
M 1466 -1236 
C 826 -1236 384 -883 384 -517 
C 384 -311 493 -118 634 -11 
C 794 102 858 102 1293 102 
C 1818 102 2547 102 2547 -517 
C 2547 -883 2106 -1236 1466 -1236 
z
" transform="scale(0.015625)"/>
       <path id="CMR17-44" d="M 333 4352 
L 333 4185 
C 774 4185 845 4185 845 3898 
L 845 453 
C 845 166 774 166 333 166 
L 333 0 
L 2368 0 
C 3398 0 4224 943 4224 2140 
C 4224 3344 3411 4352 2368 4352 
L 333 4352 
z
M 1523 166 
C 1267 166 1254 198 1254 414 
L 1254 3936 
C 1254 4153 1267 4185 1523 4185 
L 2240 4185 
C 2771 4185 3750 3873 3750 2140 
C 3750 1242 3488 879 3366 707 
C 3213 510 2848 166 2240 166 
L 1523 166 
z
" transform="scale(0.015625)"/>
       <path id="CMR17-74" d="M 966 2585 
L 1862 2585 
L 1862 2752 
L 966 2752 
L 966 3968 
L 851 3968 
C 838 3292 614 2700 70 2687 
L 70 2585 
L 627 2585 
L 627 778 
C 627 655 627 -64 1370 -64 
C 1747 -64 1965 308 1965 784 
L 1965 1151 
L 1850 1151 
L 1850 790 
C 1850 347 1677 51 1408 51 
C 1222 51 966 179 966 765 
L 966 2585 
z
" transform="scale(0.015625)"/>
       <path id="CMR17-73" d="M 1978 2688 
C 1978 2803 1971 2809 1933 2809 
C 1907 2809 1901 2803 1824 2707 
C 1805 2681 1747 2617 1728 2592 
C 1523 2809 1235 2816 1126 2816 
C 416 2816 160 2444 160 2073 
C 160 1497 813 1363 998 1324 
C 1402 1241 1542 1216 1677 1100 
C 1760 1024 1901 883 1901 652 
C 1901 384 1747 38 1158 38 
C 602 38 403 460 288 1024 
C 269 1113 269 1120 218 1120 
C 166 1120 160 1113 160 985 
L 160 64 
C 160 -52 166 -58 205 -58 
C 237 -58 243 -52 275 0 
C 314 57 410 211 448 275 
C 576 102 800 -64 1158 -64 
C 1792 -64 2131 281 2131 780 
C 2131 1107 1958 1280 1875 1356 
C 1683 1555 1459 1600 1190 1651 
C 838 1728 390 1817 390 2208 
C 390 2374 480 2726 1126 2726 
C 1811 2726 1850 2086 1862 1881 
C 1869 1849 1901 1843 1920 1843 
C 1978 1843 1978 1862 1978 1971 
L 1978 2688 
z
" transform="scale(0.015625)"/>
      </defs>
      <use xlink:href="#CMR17-53" transform="scale(0.996264)"/>
      <use xlink:href="#CMR17-69" transform="translate(50.89537 0) scale(0.996264)"/>
      <use xlink:href="#CMR17-7a" transform="translate(75.766428 0) scale(0.996264)"/>
      <use xlink:href="#CMR17-65" transform="translate(116.252089 0) scale(0.996264)"/>
      <use xlink:href="#CMR17-6f" transform="translate(186.813716 0) scale(0.996264)"/>
      <use xlink:href="#CMR17-66" transform="translate(232.504193 0) scale(0.996264)"/>
      <use xlink:href="#CMR17-54" transform="translate(290.053671 0) scale(0.996264)"/>
      <use xlink:href="#CMR17-72" transform="translate(348.756297 0) scale(0.996264)"/>
      <use xlink:href="#CMR17-61" transform="translate(384.037064 0) scale(0.996264)"/>
      <use xlink:href="#CMR17-69" transform="translate(429.727541 0) scale(0.996264)"/>
      <use xlink:href="#CMR17-6e" transform="translate(454.5986 0) scale(0.996264)"/>
      <use xlink:href="#CMR17-69" transform="translate(505.49397 0) scale(0.996264)"/>
      <use xlink:href="#CMR17-6e" transform="translate(530.365028 0) scale(0.996264)"/>
      <use xlink:href="#CMR17-67" transform="translate(581.260398 0) scale(0.996264)"/>
      <use xlink:href="#CMR17-44" transform="translate(657.026841 0) scale(0.996264)"/>
      <use xlink:href="#CMR17-61" transform="translate(727.420397 0) scale(0.996264)"/>
      <use xlink:href="#CMR17-74" transform="translate(773.110875 0) scale(0.996264)"/>
      <use xlink:href="#CMR17-61" transform="translate(808.391642 0) scale(0.996264)"/>
      <use xlink:href="#CMR17-73" transform="translate(854.082119 0) scale(0.996264)"/>
      <use xlink:href="#CMR17-65" transform="translate(889.883457 0) scale(0.996264)"/>
      <use xlink:href="#CMR17-74" transform="translate(930.369118 0) scale(0.996264)"/>
     </g>
    </g>
   </g>
   <g id="matplotlib.axis_2">
    <g id="ytick_1">
     <g id="line2d_29">
      <defs>
       <path id="mc1a53ebc5b" d="M 0 0 
L -3.5 0 
" style="stroke: #000000; stroke-width: 0.8"/>
      </defs>
      <g>
       <use xlink:href="#mc1a53ebc5b" x="55.856153" y="251.564405" style="stroke: #000000; stroke-width: 0.8"/>
      </g>
     </g>
     <g id="text_6">
      <!-- $\mathdefault{0.0}$ -->
      <g transform="translate(28.91263 257.099199) scale(0.16 -0.16)">
       <defs>
        <path id="CMMI12-3a" d="M 1178 307 
C 1178 492 1024 620 870 620 
C 685 620 557 467 557 313 
C 557 128 710 0 864 0 
C 1050 0 1178 153 1178 307 
z
" transform="scale(0.015625)"/>
       </defs>
       <use xlink:href="#CMR17-30" transform="scale(0.996264)"/>
       <use xlink:href="#CMMI12-3a" transform="translate(45.690477 0) scale(0.996264)"/>
       <use xlink:href="#CMR17-30" transform="translate(72.787654 0) scale(0.996264)"/>
      </g>
     </g>
    </g>
    <g id="ytick_2">
     <g id="line2d_30">
      <g>
       <use xlink:href="#mc1a53ebc5b" x="55.856153" y="207.212405" style="stroke: #000000; stroke-width: 0.8"/>
      </g>
     </g>
     <g id="text_7">
      <!-- $\mathdefault{0.2}$ -->
      <g transform="translate(28.91263 212.747199) scale(0.16 -0.16)">
       <use xlink:href="#CMR17-30" transform="scale(0.996264)"/>
       <use xlink:href="#CMMI12-3a" transform="translate(45.690477 0) scale(0.996264)"/>
       <use xlink:href="#CMR17-32" transform="translate(72.787654 0) scale(0.996264)"/>
      </g>
     </g>
    </g>
    <g id="ytick_3">
     <g id="line2d_31">
      <g>
       <use xlink:href="#mc1a53ebc5b" x="55.856153" y="162.860405" style="stroke: #000000; stroke-width: 0.8"/>
      </g>
     </g>
     <g id="text_8">
      <!-- $\mathdefault{0.4}$ -->
      <g transform="translate(28.91263 168.395199) scale(0.16 -0.16)">
       <use xlink:href="#CMR17-30" transform="scale(0.996264)"/>
       <use xlink:href="#CMMI12-3a" transform="translate(45.690477 0) scale(0.996264)"/>
       <use xlink:href="#CMR17-34" transform="translate(72.787654 0) scale(0.996264)"/>
      </g>
     </g>
    </g>
    <g id="ytick_4">
     <g id="line2d_32">
      <g>
       <use xlink:href="#mc1a53ebc5b" x="55.856153" y="118.508405" style="stroke: #000000; stroke-width: 0.8"/>
      </g>
     </g>
     <g id="text_9">
      <!-- $\mathdefault{0.6}$ -->
      <g transform="translate(28.91263 124.043199) scale(0.16 -0.16)">
       <defs>
        <path id="CMR17-36" d="M 678 2198 
C 678 3712 1395 4076 1811 4076 
C 1946 4076 2272 4049 2400 3782 
C 2298 3782 2106 3782 2106 3558 
C 2106 3385 2246 3328 2336 3328 
C 2394 3328 2566 3353 2566 3571 
C 2566 3987 2246 4224 1805 4224 
C 1043 4224 243 3411 243 2011 
C 243 257 966 -128 1478 -128 
C 2099 -128 2688 431 2688 1295 
C 2688 2101 2170 2688 1517 2688 
C 1126 2688 838 2430 678 1979 
L 678 2198 
z
M 1478 25 
C 691 25 691 1212 691 1450 
C 691 1914 909 2585 1504 2585 
C 1613 2585 1926 2585 2138 2140 
C 2253 1889 2253 1624 2253 1302 
C 2253 954 2253 696 2118 438 
C 1978 173 1773 25 1478 25 
z
" transform="scale(0.015625)"/>
       </defs>
       <use xlink:href="#CMR17-30" transform="scale(0.996264)"/>
       <use xlink:href="#CMMI12-3a" transform="translate(45.690477 0) scale(0.996264)"/>
       <use xlink:href="#CMR17-36" transform="translate(72.787654 0) scale(0.996264)"/>
      </g>
     </g>
    </g>
    <g id="ytick_5">
     <g id="line2d_33">
      <g>
       <use xlink:href="#mc1a53ebc5b" x="55.856153" y="74.156405" style="stroke: #000000; stroke-width: 0.8"/>
      </g>
     </g>
     <g id="text_10">
      <!-- $\mathdefault{0.8}$ -->
      <g transform="translate(28.91263 79.691199) scale(0.16 -0.16)">
       <defs>
        <path id="CMR17-38" d="M 1741 2289 
C 2144 2494 2554 2803 2554 3298 
C 2554 3884 1990 4224 1472 4224 
C 890 4224 378 3800 378 3215 
C 378 3054 416 2777 666 2533 
C 730 2469 998 2276 1171 2154 
C 883 2006 211 1652 211 945 
C 211 282 838 -128 1459 -128 
C 2144 -128 2720 366 2720 1022 
C 2720 1607 2330 1877 2074 2051 
L 1741 2289 
z
M 902 2855 
C 851 2887 595 3086 595 3388 
C 595 3781 998 4076 1459 4076 
C 1965 4076 2336 3716 2336 3298 
C 2336 2700 1670 2359 1638 2359 
C 1632 2359 1626 2359 1574 2398 
L 902 2855 
z
M 2080 1536 
C 2176 1466 2483 1253 2483 861 
C 2483 385 2010 25 1472 25 
C 890 25 448 443 448 951 
C 448 1459 838 1884 1280 2083 
L 2080 1536 
z
" transform="scale(0.015625)"/>
       </defs>
       <use xlink:href="#CMR17-30" transform="scale(0.996264)"/>
       <use xlink:href="#CMMI12-3a" transform="translate(45.690477 0) scale(0.996264)"/>
       <use xlink:href="#CMR17-38" transform="translate(72.787654 0) scale(0.996264)"/>
      </g>
     </g>
    </g>
    <g id="ytick_6">
     <g id="line2d_34">
      <g>
       <use xlink:href="#mc1a53ebc5b" x="55.856153" y="29.804405" style="stroke: #000000; stroke-width: 0.8"/>
      </g>
     </g>
     <g id="text_11">
      <!-- $\mathdefault{1.0}$ -->
      <g transform="translate(28.91263 35.339199) scale(0.16 -0.16)">
       <use xlink:href="#CMR17-31" transform="scale(0.996264)"/>
       <use xlink:href="#CMMI12-3a" transform="translate(45.690477 0) scale(0.996264)"/>
       <use xlink:href="#CMR17-30" transform="translate(72.787654 0) scale(0.996264)"/>
      </g>
     </g>
    </g>
    <g id="text_12">
     <!-- $R^2$ -->
     <g transform="translate(21.036997 151.605731) rotate(-90) scale(0.2 -0.2)">
      <defs>
       <path id="CMMI12-52" d="M 2355 3917 
C 2413 4153 2438 4166 2688 4166 
L 3149 4166 
C 3699 4166 4109 4000 4109 3503 
C 4109 3177 3942 2240 2656 2240 
L 1933 2240 
L 2355 3917 
z
M 3245 2163 
C 4038 2335 4659 2846 4659 3394 
C 4659 3892 4154 4352 3264 4352 
L 1530 4352 
C 1402 4352 1344 4352 1344 4230 
C 1344 4166 1389 4166 1510 4166 
C 1894 4166 1894 4115 1894 4045 
C 1894 4032 1894 3994 1869 3898 
L 1005 475 
C 947 253 934 190 493 190 
C 346 190 301 190 301 69 
C 301 6 371 6 390 6 
C 506 6 640 19 762 19 
L 1517 19 
C 1632 19 1766 6 1882 6 
C 1933 6 2003 6 2003 126 
C 2003 190 1946 190 1850 190 
C 1459 190 1459 241 1459 304 
C 1459 310 1459 355 1472 405 
L 1901 2112 
L 2669 2112 
C 3277 2112 3392 1731 3392 1522 
C 3392 1426 3328 1179 3283 1014 
C 3213 723 3194 653 3194 532 
C 3194 82 3565 -128 3994 -128 
C 4512 -128 4736 501 4736 589 
C 4736 634 4704 653 4666 653 
C 4614 653 4602 615 4589 564 
C 4435 114 4173 0 4013 0 
C 3853 0 3750 69 3750 355 
C 3750 507 3827 1084 3834 1116 
C 3866 1350 3866 1376 3866 1426 
C 3866 1889 3488 2086 3245 2163 
z
" transform="scale(0.015625)"/>
      </defs>
      <use xlink:href="#CMMI12-52" transform="scale(0.996264)"/>
      <use xlink:href="#CMR17-32" transform="translate(75.070962 36.153639) scale(0.697382)"/>
     </g>
    </g>
   </g>
   <g id="LineCollection_1">
    <path d="M 265.78626 38.261805 
L 265.78626 37.801394 
" clip-path="url(#pdb60bec76a)" style="fill: none; stroke: #13679e"/>
    <path d="M 257.197935 38.703339 
L 257.197935 37.905252 
" clip-path="url(#pdb60bec76a)" style="fill: none; stroke: #13679e"/>
    <path d="M 247.457408 38.986789 
L 247.457408 38.332556 
" clip-path="url(#pdb60bec76a)" style="fill: none; stroke: #13679e"/>
    <path d="M 236.206904 39.58492 
L 236.206904 38.934231 
" clip-path="url(#pdb60bec76a)" style="fill: none; stroke: #13679e"/>
    <path d="M 222.890818 40.196207 
L 222.890818 39.532818 
" clip-path="url(#pdb60bec76a)" style="fill: none; stroke: #13679e"/>
    <path d="M 206.576172 42.174307 
L 206.576172 40.445883 
" clip-path="url(#pdb60bec76a)" style="fill: none; stroke: #13679e"/>
    <path d="M 185.507726 43.575832 
L 185.507726 41.825163 
" clip-path="url(#pdb60bec76a)" style="fill: none; stroke: #13679e"/>
    <path d="M 155.720682 83.362931 
L 155.720682 54.578759 
" clip-path="url(#pdb60bec76a)" style="fill: none; stroke: #13679e"/>
    <path d="M 147.957167 98.814646 
L 147.957167 63.561498 
" clip-path="url(#pdb60bec76a)" style="fill: none; stroke: #13679e"/>
    <path d="M 139.26418 194.459407 
L 139.26418 79.404143 
" clip-path="url(#pdb60bec76a)" style="fill: none; stroke: #13679e"/>
    <path d="M 129.388427 194.798063 
L 129.388427 117.936423 
" clip-path="url(#pdb60bec76a)" style="fill: none; stroke: #13679e"/>
    <path d="M 117.956454 197.680679 
L 117.956454 168.041774 
" clip-path="url(#pdb60bec76a)" style="fill: none; stroke: #13679e"/>
    <path d="M 104.38404 199.562524 
L 104.38404 185.191072 
" clip-path="url(#pdb60bec76a)" style="fill: none; stroke: #13679e"/>
   </g>
   <g id="LineCollection_2">
    <path d="M 265.78626 40.535274 
L 265.78626 40.20877 
" clip-path="url(#pdb60bec76a)" style="fill: none; stroke: #c00000"/>
    <path d="M 257.197935 40.826233 
L 257.197935 39.905249 
" clip-path="url(#pdb60bec76a)" style="fill: none; stroke: #c00000"/>
    <path d="M 247.457408 40.870962 
L 247.457408 39.965959 
" clip-path="url(#pdb60bec76a)" style="fill: none; stroke: #c00000"/>
    <path d="M 236.206904 41.255643 
L 236.206904 40.600024 
" clip-path="url(#pdb60bec76a)" style="fill: none; stroke: #c00000"/>
    <path d="M 222.890818 41.463848 
L 222.890818 40.941707 
" clip-path="url(#pdb60bec76a)" style="fill: none; stroke: #c00000"/>
    <path d="M 206.576172 43.51271 
L 206.576172 41.527004 
" clip-path="url(#pdb60bec76a)" style="fill: none; stroke: #c00000"/>
    <path d="M 185.507726 44.769772 
L 185.507726 43.227054 
" clip-path="url(#pdb60bec76a)" style="fill: none; stroke: #c00000"/>
    <path d="M 155.720682 87.453416 
L 155.720682 56.193443 
" clip-path="url(#pdb60bec76a)" style="fill: none; stroke: #c00000"/>
    <path d="M 147.957167 102.344231 
L 147.957167 64.47934 
" clip-path="url(#pdb60bec76a)" style="fill: none; stroke: #c00000"/>
    <path d="M 139.26418 199.055074 
L 139.26418 83.110718 
" clip-path="url(#pdb60bec76a)" style="fill: none; stroke: #c00000"/>
    <path d="M 129.388427 210.909085 
L 129.388427 123.105569 
" clip-path="url(#pdb60bec76a)" style="fill: none; stroke: #c00000"/>
    <path d="M 117.956454 205.491915 
L 117.956454 168.16995 
" clip-path="url(#pdb60bec76a)" style="fill: none; stroke: #c00000"/>
    <path d="M 104.38404 201.773295 
L 104.38404 188.573251 
" clip-path="url(#pdb60bec76a)" style="fill: none; stroke: #c00000"/>
   </g>
   <g id="line2d_35">
    <path d="M 265.78626 38.031599 
L 257.197935 38.304295 
L 247.457408 38.659673 
L 236.206904 39.259575 
L 222.890818 39.864513 
L 206.576172 41.310095 
L 185.507726 42.700497 
L 155.720682 68.970845 
L 147.957167 81.188072 
L 139.26418 136.931775 
L 129.388427 156.367243 
L 117.956454 182.861226 
L 104.38404 192.376798 
" clip-path="url(#pdb60bec76a)" style="fill: none; stroke: #13679e; stroke-width: 1.5; stroke-linecap: square"/>
    <defs>
     <path id="m3cda53c4e5" d="M 0 3 
C 0.795609 3 1.55874 2.683901 2.12132 2.12132 
C 2.683901 1.55874 3 0.795609 3 0 
C 3 -0.795609 2.683901 -1.55874 2.12132 -2.12132 
C 1.55874 -2.683901 0.795609 -3 0 -3 
C -0.795609 -3 -1.55874 -2.683901 -2.12132 -2.12132 
C -2.683901 -1.55874 -3 -0.795609 -3 0 
C -3 0.795609 -2.683901 1.55874 -2.12132 2.12132 
C -1.55874 2.683901 -0.795609 3 0 3 
z
" style="stroke: #13679e"/>
    </defs>
    <g clip-path="url(#pdb60bec76a)">
     <use xlink:href="#m3cda53c4e5" x="265.78626" y="38.031599" style="fill-opacity: 0; stroke: #13679e"/>
     <use xlink:href="#m3cda53c4e5" x="257.197935" y="38.304295" style="fill-opacity: 0; stroke: #13679e"/>
     <use xlink:href="#m3cda53c4e5" x="247.457408" y="38.659673" style="fill-opacity: 0; stroke: #13679e"/>
     <use xlink:href="#m3cda53c4e5" x="236.206904" y="39.259575" style="fill-opacity: 0; stroke: #13679e"/>
     <use xlink:href="#m3cda53c4e5" x="222.890818" y="39.864513" style="fill-opacity: 0; stroke: #13679e"/>
     <use xlink:href="#m3cda53c4e5" x="206.576172" y="41.310095" style="fill-opacity: 0; stroke: #13679e"/>
     <use xlink:href="#m3cda53c4e5" x="185.507726" y="42.700497" style="fill-opacity: 0; stroke: #13679e"/>
     <use xlink:href="#m3cda53c4e5" x="155.720682" y="68.970845" style="fill-opacity: 0; stroke: #13679e"/>
     <use xlink:href="#m3cda53c4e5" x="147.957167" y="81.188072" style="fill-opacity: 0; stroke: #13679e"/>
     <use xlink:href="#m3cda53c4e5" x="139.26418" y="136.931775" style="fill-opacity: 0; stroke: #13679e"/>
     <use xlink:href="#m3cda53c4e5" x="129.388427" y="156.367243" style="fill-opacity: 0; stroke: #13679e"/>
     <use xlink:href="#m3cda53c4e5" x="117.956454" y="182.861226" style="fill-opacity: 0; stroke: #13679e"/>
     <use xlink:href="#m3cda53c4e5" x="104.38404" y="192.376798" style="fill-opacity: 0; stroke: #13679e"/>
    </g>
   </g>
   <g id="line2d_36">
    <path d="M 265.78626 40.372022 
L 257.197935 40.365741 
L 247.457408 40.41846 
L 236.206904 40.927833 
L 222.890818 41.202777 
L 206.576172 42.519857 
L 185.507726 43.998413 
L 155.720682 71.823429 
L 147.957167 83.411785 
L 139.26418 141.082896 
L 129.388427 167.007327 
L 117.956454 186.830933 
L 104.38404 195.173273 
" clip-path="url(#pdb60bec76a)" style="fill: none; stroke: #c00000; stroke-width: 1.5; stroke-linecap: square"/>
    <defs>
     <path id="m62c7a522f3" d="M 0 3 
C 0.795609 3 1.55874 2.683901 2.12132 2.12132 
C 2.683901 1.55874 3 0.795609 3 0 
C 3 -0.795609 2.683901 -1.55874 2.12132 -2.12132 
C 1.55874 -2.683901 0.795609 -3 0 -3 
C -0.795609 -3 -1.55874 -2.683901 -2.12132 -2.12132 
C -2.683901 -1.55874 -3 -0.795609 -3 0 
C -3 0.795609 -2.683901 1.55874 -2.12132 2.12132 
C -1.55874 2.683901 -0.795609 3 0 3 
z
" style="stroke: #c00000"/>
    </defs>
    <g clip-path="url(#pdb60bec76a)">
     <use xlink:href="#m62c7a522f3" x="265.78626" y="40.372022" style="fill-opacity: 0; stroke: #c00000"/>
     <use xlink:href="#m62c7a522f3" x="257.197935" y="40.365741" style="fill-opacity: 0; stroke: #c00000"/>
     <use xlink:href="#m62c7a522f3" x="247.457408" y="40.41846" style="fill-opacity: 0; stroke: #c00000"/>
     <use xlink:href="#m62c7a522f3" x="236.206904" y="40.927833" style="fill-opacity: 0; stroke: #c00000"/>
     <use xlink:href="#m62c7a522f3" x="222.890818" y="41.202777" style="fill-opacity: 0; stroke: #c00000"/>
     <use xlink:href="#m62c7a522f3" x="206.576172" y="42.519857" style="fill-opacity: 0; stroke: #c00000"/>
     <use xlink:href="#m62c7a522f3" x="185.507726" y="43.998413" style="fill-opacity: 0; stroke: #c00000"/>
     <use xlink:href="#m62c7a522f3" x="155.720682" y="71.823429" style="fill-opacity: 0; stroke: #c00000"/>
     <use xlink:href="#m62c7a522f3" x="147.957167" y="83.411785" style="fill-opacity: 0; stroke: #c00000"/>
     <use xlink:href="#m62c7a522f3" x="139.26418" y="141.082896" style="fill-opacity: 0; stroke: #c00000"/>
     <use xlink:href="#m62c7a522f3" x="129.388427" y="167.007327" style="fill-opacity: 0; stroke: #c00000"/>
     <use xlink:href="#m62c7a522f3" x="117.956454" y="186.830933" style="fill-opacity: 0; stroke: #c00000"/>
     <use xlink:href="#m62c7a522f3" x="104.38404" y="195.173273" style="fill-opacity: 0; stroke: #c00000"/>
    </g>
   </g>
   <g id="patch_3">
    <path d="M 55.856153 251.564405 
L 55.856153 29.804405 
" style="fill: none; stroke: #000000; stroke-width: 0.8; stroke-linejoin: miter; stroke-linecap: square"/>
   </g>
   <g id="patch_4">
    <path d="M 306.956153 251.564405 
L 306.956153 29.804405 
" style="fill: none; stroke: #000000; stroke-width: 0.8; stroke-linejoin: miter; stroke-linecap: square"/>
   </g>
   <g id="patch_5">
    <path d="M 55.856153 251.564405 
L 306.956153 251.564405 
" style="fill: none; stroke: #000000; stroke-width: 0.8; stroke-linejoin: miter; stroke-linecap: square"/>
   </g>
   <g id="patch_6">
    <path d="M 55.856153 29.804405 
L 306.956153 29.804405 
" style="fill: none; stroke: #000000; stroke-width: 0.8; stroke-linejoin: miter; stroke-linecap: square"/>
   </g>
  </g>
  <g id="axes_2">
   <g id="matplotlib.axis_3">
    <g id="ytick_7">
     <g id="line2d_37">
      <defs>
       <path id="mf048d08ec2" d="M 0 0 
L 3.5 0 
" style="stroke: #000000; stroke-width: 0.8"/>
      </defs>
      <g>
       <use xlink:href="#mf048d08ec2" x="306.956153" y="251.564405" style="stroke: #000000; stroke-width: 0.8"/>
      </g>
     </g>
     <g id="text_13">
      <!-- $\mathdefault{0.0}$ -->
      <g transform="translate(313.956153 257.099199) scale(0.16 -0.16)">
       <use xlink:href="#CMR17-30" transform="scale(0.996264)"/>
       <use xlink:href="#CMMI12-3a" transform="translate(45.690477 0) scale(0.996264)"/>
       <use xlink:href="#CMR17-30" transform="translate(72.787654 0) scale(0.996264)"/>
      </g>
     </g>
    </g>
    <g id="ytick_8">
     <g id="line2d_38">
      <g>
       <use xlink:href="#mf048d08ec2" x="306.956153" y="207.212405" style="stroke: #000000; stroke-width: 0.8"/>
      </g>
     </g>
     <g id="text_14">
      <!-- $\mathdefault{0.5}$ -->
      <g transform="translate(313.956153 212.747199) scale(0.16 -0.16)">
       <use xlink:href="#CMR17-30" transform="scale(0.996264)"/>
       <use xlink:href="#CMMI12-3a" transform="translate(45.690477 0) scale(0.996264)"/>
       <use xlink:href="#CMR17-35" transform="translate(72.787654 0) scale(0.996264)"/>
      </g>
     </g>
    </g>
    <g id="ytick_9">
     <g id="line2d_39">
      <g>
       <use xlink:href="#mf048d08ec2" x="306.956153" y="162.860405" style="stroke: #000000; stroke-width: 0.8"/>
      </g>
     </g>
     <g id="text_15">
      <!-- $\mathdefault{1.0}$ -->
      <g transform="translate(313.956153 168.395199) scale(0.16 -0.16)">
       <use xlink:href="#CMR17-31" transform="scale(0.996264)"/>
       <use xlink:href="#CMMI12-3a" transform="translate(45.690477 0) scale(0.996264)"/>
       <use xlink:href="#CMR17-30" transform="translate(72.787654 0) scale(0.996264)"/>
      </g>
     </g>
    </g>
    <g id="ytick_10">
     <g id="line2d_40">
      <g>
       <use xlink:href="#mf048d08ec2" x="306.956153" y="118.508405" style="stroke: #000000; stroke-width: 0.8"/>
      </g>
     </g>
     <g id="text_16">
      <!-- $\mathdefault{1.5}$ -->
      <g transform="translate(313.956153 124.043199) scale(0.16 -0.16)">
       <use xlink:href="#CMR17-31" transform="scale(0.996264)"/>
       <use xlink:href="#CMMI12-3a" transform="translate(45.690477 0) scale(0.996264)"/>
       <use xlink:href="#CMR17-35" transform="translate(72.787654 0) scale(0.996264)"/>
      </g>
     </g>
    </g>
    <g id="ytick_11">
     <g id="line2d_41">
      <g>
       <use xlink:href="#mf048d08ec2" x="306.956153" y="74.156405" style="stroke: #000000; stroke-width: 0.8"/>
      </g>
     </g>
     <g id="text_17">
      <!-- $\mathdefault{2.0}$ -->
      <g transform="translate(313.956153 79.691199) scale(0.16 -0.16)">
       <use xlink:href="#CMR17-32" transform="scale(0.996264)"/>
       <use xlink:href="#CMMI12-3a" transform="translate(45.690477 0) scale(0.996264)"/>
       <use xlink:href="#CMR17-30" transform="translate(72.787654 0) scale(0.996264)"/>
      </g>
     </g>
    </g>
    <g id="ytick_12">
     <g id="line2d_42">
      <g>
       <use xlink:href="#mf048d08ec2" x="306.956153" y="29.804405" style="stroke: #000000; stroke-width: 0.8"/>
      </g>
     </g>
     <g id="text_18">
      <!-- $\mathdefault{2.5}$ -->
      <g transform="translate(313.956153 35.339199) scale(0.16 -0.16)">
       <use xlink:href="#CMR17-32" transform="scale(0.996264)"/>
       <use xlink:href="#CMMI12-3a" transform="translate(45.690477 0) scale(0.996264)"/>
       <use xlink:href="#CMR17-35" transform="translate(72.787654 0) scale(0.996264)"/>
      </g>
     </g>
    </g>
    <g id="text_19">
     <!-- $MAE$ -->
     <g transform="translate(351.736672 165.696316) rotate(-90) scale(0.2 -0.2)">
      <defs>
       <path id="CMMI12-4d" d="M 5811 3886 
C 5869 4102 5882 4166 6336 4166 
C 6458 4166 6515 4166 6515 4287 
C 6515 4352 6470 4352 6349 4352 
L 5581 4352 
C 5421 4352 5414 4345 5344 4243 
L 3008 567 
L 2528 4211 
C 2509 4352 2502 4352 2336 4352 
L 1542 4352 
C 1421 4352 1363 4352 1363 4230 
C 1363 4166 1421 4166 1517 4166 
C 1907 4166 1907 4115 1907 4045 
C 1907 4032 1907 3994 1882 3898 
L 1062 650 
C 986 344 838 204 410 185 
C 390 185 314 179 314 70 
C 314 0 371 0 397 0 
C 525 0 851 12 979 12 
L 1286 12 
C 1376 12 1485 0 1574 0 
C 1619 0 1690 0 1690 121 
C 1690 179 1626 185 1600 185 
C 1389 191 1184 230 1184 459 
C 1184 523 1184 529 1210 618 
L 2093 4128 
L 2099 4128 
L 2630 172 
C 2650 19 2656 0 2714 0 
C 2784 0 2816 51 2848 108 
L 5421 4159 
L 5427 4159 
L 4499 472 
C 4442 249 4429 185 3981 185 
C 3859 185 3795 185 3795 70 
C 3795 0 3853 0 3891 0 
C 4000 0 4128 12 4237 12 
L 4992 12 
C 5101 12 5235 0 5344 0 
C 5395 0 5466 0 5466 121 
C 5466 185 5408 185 5312 185 
C 4922 185 4922 236 4922 300 
C 4922 306 4922 351 4934 402 
L 5811 3886 
z
" transform="scale(0.015625)"/>
       <path id="CMMI12-41" d="M 1088 720 
C 864 335 646 205 339 185 
C 269 179 218 179 218 64 
C 218 25 250 0 294 0 
C 410 0 698 12 813 12 
C 998 12 1203 0 1382 0 
C 1421 0 1498 0 1498 121 
C 1498 179 1446 185 1408 185 
C 1261 198 1139 250 1139 407 
C 1139 498 1178 570 1261 714 
L 1747 1536 
L 3379 1536 
C 3386 1477 3386 1425 3392 1366 
C 3411 1196 3488 518 3488 394 
C 3488 198 3162 185 3059 185 
C 2989 185 2918 185 2918 70 
C 2918 0 2976 0 3014 0 
C 3123 0 3251 12 3360 12 
L 3725 12 
C 4115 12 4397 0 4403 0 
C 4448 0 4518 0 4518 121 
C 4518 185 4461 185 4365 185 
C 4013 185 4006 244 3987 440 
L 3597 4403 
C 3584 4531 3558 4544 3488 4544 
C 3424 4544 3386 4531 3328 4435 
L 1088 720 
z
M 1856 1721 
L 3142 3831 
L 3360 1721 
L 1856 1721 
z
" transform="scale(0.015625)"/>
       <path id="CMMI12-45" d="M 4448 1489 
C 4454 1508 4474 1553 4474 1578 
C 4474 1611 4448 1643 4410 1643 
C 4384 1643 4371 1636 4352 1617 
C 4339 1611 4339 1598 4282 1469 
C 3904 570 3629 185 2605 185 
L 1670 185 
C 1581 185 1568 185 1530 192 
C 1459 198 1453 211 1453 262 
C 1453 307 1466 346 1478 403 
L 1920 2176 
L 2554 2176 
C 3053 2176 3091 2066 3091 1874 
C 3091 1810 3091 1752 3046 1559 
C 3034 1534 3027 1508 3027 1489 
C 3027 1444 3059 1424 3098 1424 
C 3155 1424 3162 1469 3187 1559 
L 3552 3036 
C 3552 3068 3526 3099 3488 3099 
C 3430 3099 3424 3074 3398 2986 
C 3270 2500 3142 2361 2573 2361 
L 1965 2361 
L 2362 3913 
C 2419 4134 2432 4153 2694 4153 
L 3610 4153 
C 4397 4153 4557 3945 4557 3465 
C 4557 3459 4557 3282 4531 3074 
C 4525 3049 4518 3011 4518 2998 
C 4518 2948 4550 2929 4589 2929 
C 4634 2929 4659 2954 4672 3068 
L 4806 4172 
C 4806 4191 4819 4255 4819 4268 
C 4819 4339 4762 4339 4646 4339 
L 1523 4339 
C 1402 4339 1338 4339 1338 4223 
C 1338 4153 1382 4153 1491 4153 
C 1888 4153 1888 4109 1888 4039 
C 1888 4008 1882 3983 1862 3913 
L 998 474 
C 941 249 928 185 480 185 
C 358 185 294 185 294 70 
C 294 0 333 0 461 0 
L 3674 0 
C 3814 0 3821 6 3866 108 
L 4448 1489 
z
" transform="scale(0.015625)"/>
      </defs>
      <use xlink:href="#CMMI12-4d" transform="scale(0.996264)"/>
      <use xlink:href="#CMMI12-41" transform="translate(104.780079 0) scale(0.996264)"/>
      <use xlink:href="#CMMI12-45" transform="translate(177.907964 0) scale(0.996264)"/>
     </g>
    </g>
   </g>
   <g id="LineCollection_3">
    <path d="M 265.78626 213.206929 
L 265.78626 212.413549 
" clip-path="url(#pdb60bec76a)" style="fill: none; stroke: #13679e"/>
    <path d="M 257.197935 213.184182 
L 257.197935 210.967017 
" clip-path="url(#pdb60bec76a)" style="fill: none; stroke: #13679e"/>
    <path d="M 247.457408 211.831718 
L 247.457408 210.002818 
" clip-path="url(#pdb60bec76a)" style="fill: none; stroke: #13679e"/>
    <path d="M 236.206904 210.25366 
L 236.206904 208.39149 
" clip-path="url(#pdb60bec76a)" style="fill: none; stroke: #13679e"/>
    <path d="M 222.890818 208.212468 
L 222.890818 206.62201 
" clip-path="url(#pdb60bec76a)" style="fill: none; stroke: #13679e"/>
    <path d="M 206.576172 205.795325 
L 206.576172 200.815132 
" clip-path="url(#pdb60bec76a)" style="fill: none; stroke: #13679e"/>
    <path d="M 185.507726 199.269728 
L 185.507726 196.174011 
" clip-path="url(#pdb60bec76a)" style="fill: none; stroke: #13679e"/>
    <path d="M 155.720682 173.029378 
L 155.720682 135.014486 
" clip-path="url(#pdb60bec76a)" style="fill: none; stroke: #13679e"/>
    <path d="M 147.957167 162.701179 
L 147.957167 118.275528 
" clip-path="url(#pdb60bec76a)" style="fill: none; stroke: #13679e"/>
    <path d="M 139.26418 142.94399 
L 139.26418 50.53158 
" clip-path="url(#pdb60bec76a)" style="fill: none; stroke: #13679e"/>
    <path d="M 129.388427 104.324562 
L 129.388427 55.436 
" clip-path="url(#pdb60bec76a)" style="fill: none; stroke: #13679e"/>
    <path d="M 117.956454 68.803729 
L 117.956454 51.51551 
" clip-path="url(#pdb60bec76a)" style="fill: none; stroke: #13679e"/>
    <path d="M 104.38404 61.1839 
L 104.38404 45.396414 
" clip-path="url(#pdb60bec76a)" style="fill: none; stroke: #13679e"/>
   </g>
   <g id="LineCollection_4">
    <path d="M 265.78626 206.849314 
L 265.78626 206.474823 
" clip-path="url(#pdb60bec76a)" style="fill: none; stroke: #c00000"/>
    <path d="M 257.197935 207.969793 
L 257.197935 205.418981 
" clip-path="url(#pdb60bec76a)" style="fill: none; stroke: #c00000"/>
    <path d="M 247.457408 207.243127 
L 247.457408 205.180435 
" clip-path="url(#pdb60bec76a)" style="fill: none; stroke: #c00000"/>
    <path d="M 236.206904 206.107224 
L 236.206904 204.607288 
" clip-path="url(#pdb60bec76a)" style="fill: none; stroke: #c00000"/>
    <path d="M 222.890818 204.728223 
L 222.890818 203.282727 
" clip-path="url(#pdb60bec76a)" style="fill: none; stroke: #c00000"/>
    <path d="M 206.576172 202.900726 
L 206.576172 197.240915 
" clip-path="url(#pdb60bec76a)" style="fill: none; stroke: #c00000"/>
    <path d="M 185.507726 195.749891 
L 185.507726 192.956544 
" clip-path="url(#pdb60bec76a)" style="fill: none; stroke: #c00000"/>
    <path d="M 155.720682 169.06278 
L 155.720682 127.889753 
" clip-path="url(#pdb60bec76a)" style="fill: none; stroke: #c00000"/>
    <path d="M 147.957167 158.802005 
L 147.957167 111.235885 
" clip-path="url(#pdb60bec76a)" style="fill: none; stroke: #c00000"/>
    <path d="M 139.26418 136.316652 
L 139.26418 43.391229 
" clip-path="url(#pdb60bec76a)" style="fill: none; stroke: #c00000"/>
    <path d="M 129.388427 96.190989 
L 129.388427 44.144354 
" clip-path="url(#pdb60bec76a)" style="fill: none; stroke: #c00000"/>
    <path d="M 117.956454 64.446706 
L 117.956454 43.138039 
" clip-path="url(#pdb60bec76a)" style="fill: none; stroke: #c00000"/>
    <path d="M 104.38404 55.822138 
L 104.38404 40.731231 
" clip-path="url(#pdb60bec76a)" style="fill: none; stroke: #c00000"/>
   </g>
   <g id="line2d_43">
    <path d="M 265.78626 212.810239 
L 257.197935 212.0756 
L 247.457408 210.917268 
L 236.206904 209.322575 
L 222.890818 207.417239 
L 206.576172 203.305228 
L 185.507726 197.72187 
L 155.720682 154.021932 
L 147.957167 140.488353 
L 139.26418 96.737785 
L 129.388427 79.880281 
L 117.956454 60.159619 
L 104.38404 53.290157 
" clip-path="url(#pdb60bec76a)" style="fill: none; stroke: #13679e; stroke-width: 1.5; stroke-linecap: square"/>
    <defs>
     <path id="mc8b90fb96e" d="M -3 3 
L 3 3 
L 3 -3 
L -3 -3 
z
" style="stroke: #13679e; stroke-linejoin: miter"/>
    </defs>
    <g clip-path="url(#pdb60bec76a)">
     <use xlink:href="#mc8b90fb96e" x="265.78626" y="212.810239" style="fill-opacity: 0; stroke: #13679e; stroke-linejoin: miter"/>
     <use xlink:href="#mc8b90fb96e" x="257.197935" y="212.0756" style="fill-opacity: 0; stroke: #13679e; stroke-linejoin: miter"/>
     <use xlink:href="#mc8b90fb96e" x="247.457408" y="210.917268" style="fill-opacity: 0; stroke: #13679e; stroke-linejoin: miter"/>
     <use xlink:href="#mc8b90fb96e" x="236.206904" y="209.322575" style="fill-opacity: 0; stroke: #13679e; stroke-linejoin: miter"/>
     <use xlink:href="#mc8b90fb96e" x="222.890818" y="207.417239" style="fill-opacity: 0; stroke: #13679e; stroke-linejoin: miter"/>
     <use xlink:href="#mc8b90fb96e" x="206.576172" y="203.305228" style="fill-opacity: 0; stroke: #13679e; stroke-linejoin: miter"/>
     <use xlink:href="#mc8b90fb96e" x="185.507726" y="197.72187" style="fill-opacity: 0; stroke: #13679e; stroke-linejoin: miter"/>
     <use xlink:href="#mc8b90fb96e" x="155.720682" y="154.021932" style="fill-opacity: 0; stroke: #13679e; stroke-linejoin: miter"/>
     <use xlink:href="#mc8b90fb96e" x="147.957167" y="140.488353" style="fill-opacity: 0; stroke: #13679e; stroke-linejoin: miter"/>
     <use xlink:href="#mc8b90fb96e" x="139.26418" y="96.737785" style="fill-opacity: 0; stroke: #13679e; stroke-linejoin: miter"/>
     <use xlink:href="#mc8b90fb96e" x="129.388427" y="79.880281" style="fill-opacity: 0; stroke: #13679e; stroke-linejoin: miter"/>
     <use xlink:href="#mc8b90fb96e" x="117.956454" y="60.159619" style="fill-opacity: 0; stroke: #13679e; stroke-linejoin: miter"/>
     <use xlink:href="#mc8b90fb96e" x="104.38404" y="53.290157" style="fill-opacity: 0; stroke: #13679e; stroke-linejoin: miter"/>
    </g>
   </g>
   <g id="line2d_44">
    <path d="M 265.78626 206.662069 
L 257.197935 206.694387 
L 247.457408 206.211781 
L 236.206904 205.357256 
L 222.890818 204.005475 
L 206.576172 200.070821 
L 185.507726 194.353218 
L 155.720682 148.476267 
L 147.957167 135.018945 
L 139.26418 89.85394 
L 129.388427 70.167672 
L 117.956454 53.792373 
L 104.38404 48.276685 
" clip-path="url(#pdb60bec76a)" style="fill: none; stroke: #c00000; stroke-width: 1.5; stroke-linecap: square"/>
    <defs>
     <path id="m36de946737" d="M -3 3 
L 3 3 
L 3 -3 
L -3 -3 
z
" style="stroke: #c00000; stroke-linejoin: miter"/>
    </defs>
    <g clip-path="url(#pdb60bec76a)">
     <use xlink:href="#m36de946737" x="265.78626" y="206.662069" style="fill-opacity: 0; stroke: #c00000; stroke-linejoin: miter"/>
     <use xlink:href="#m36de946737" x="257.197935" y="206.694387" style="fill-opacity: 0; stroke: #c00000; stroke-linejoin: miter"/>
     <use xlink:href="#m36de946737" x="247.457408" y="206.211781" style="fill-opacity: 0; stroke: #c00000; stroke-linejoin: miter"/>
     <use xlink:href="#m36de946737" x="236.206904" y="205.357256" style="fill-opacity: 0; stroke: #c00000; stroke-linejoin: miter"/>
     <use xlink:href="#m36de946737" x="222.890818" y="204.005475" style="fill-opacity: 0; stroke: #c00000; stroke-linejoin: miter"/>
     <use xlink:href="#m36de946737" x="206.576172" y="200.070821" style="fill-opacity: 0; stroke: #c00000; stroke-linejoin: miter"/>
     <use xlink:href="#m36de946737" x="185.507726" y="194.353218" style="fill-opacity: 0; stroke: #c00000; stroke-linejoin: miter"/>
     <use xlink:href="#m36de946737" x="155.720682" y="148.476267" style="fill-opacity: 0; stroke: #c00000; stroke-linejoin: miter"/>
     <use xlink:href="#m36de946737" x="147.957167" y="135.018945" style="fill-opacity: 0; stroke: #c00000; stroke-linejoin: miter"/>
     <use xlink:href="#m36de946737" x="139.26418" y="89.85394" style="fill-opacity: 0; stroke: #c00000; stroke-linejoin: miter"/>
     <use xlink:href="#m36de946737" x="129.388427" y="70.167672" style="fill-opacity: 0; stroke: #c00000; stroke-linejoin: miter"/>
     <use xlink:href="#m36de946737" x="117.956454" y="53.792373" style="fill-opacity: 0; stroke: #c00000; stroke-linejoin: miter"/>
     <use xlink:href="#m36de946737" x="104.38404" y="48.276685" style="fill-opacity: 0; stroke: #c00000; stroke-linejoin: miter"/>
    </g>
   </g>
   <g id="patch_7">
    <path d="M 55.856153 251.564405 
L 55.856153 29.804405 
" style="fill: none; stroke: #000000; stroke-width: 0.8; stroke-linejoin: miter; stroke-linecap: square"/>
   </g>
   <g id="patch_8">
    <path d="M 306.956153 251.564405 
L 306.956153 29.804405 
" style="fill: none; stroke: #000000; stroke-width: 0.8; stroke-linejoin: miter; stroke-linecap: square"/>
   </g>
   <g id="patch_9">
    <path d="M 55.856153 251.564405 
L 306.956153 251.564405 
" style="fill: none; stroke: #000000; stroke-width: 0.8; stroke-linejoin: miter; stroke-linecap: square"/>
   </g>
   <g id="patch_10">
    <path d="M 55.856153 29.804405 
L 306.956153 29.804405 
" style="fill: none; stroke: #000000; stroke-width: 0.8; stroke-linejoin: miter; stroke-linecap: square"/>
   </g>
   <g id="text_20">
    <!-- GED -->
    <g transform="translate(156.765926 23.804405) scale(0.24 -0.24)">
     <defs>
      <path id="CMR17-47" d="M 3974 1258 
C 3974 1503 3994 1536 4390 1536 
L 4390 1702 
C 4237 1689 3891 1689 3718 1689 
C 3539 1689 3040 1696 2797 1702 
L 2797 1536 
L 2989 1536 
C 3539 1536 3552 1464 3552 1232 
L 3552 806 
C 3552 96 2720 38 2522 38 
C 1862 38 781 496 781 2179 
C 781 3862 1843 4313 2464 4313 
C 3187 4313 3712 3681 3834 2785 
C 3846 2708 3846 2695 3904 2695 
C 3974 2695 3974 2708 3974 2824 
L 3974 4351 
C 3974 4467 3968 4473 3930 4473 
C 3904 4473 3898 4467 3853 4390 
L 3571 3849 
C 3258 4249 2874 4480 2381 4480 
C 1286 4480 294 3507 294 2179 
C 294 858 1267 -128 2394 -128 
C 2912 -128 3418 57 3616 425 
C 3725 161 3904 -20 3936 -20 
C 3968 -20 3974 -13 3974 102 
L 3974 1258 
z
" transform="scale(0.015625)"/>
      <path id="CMR17-45" d="M 3885 1614 
L 3770 1614 
C 3629 676 3546 166 2419 166 
L 1530 166 
C 1274 166 1261 198 1261 415 
L 1261 2176 
L 1862 2176 
C 2464 2176 2522 1959 2522 1429 
L 2637 1429 
L 2637 3086 
L 2522 3086 
C 2522 2558 2464 2342 1862 2342 
L 1261 2342 
L 1261 3924 
C 1261 4141 1274 4172 1530 4172 
L 2406 4172 
C 3398 4172 3514 3778 3603 2933 
L 3718 2933 
L 3565 4339 
L 326 4339 
L 326 4172 
C 768 4172 838 4172 838 3886 
L 838 453 
C 838 166 768 166 326 166 
L 326 0 
L 3654 0 
L 3885 1614 
z
" transform="scale(0.015625)"/>
     </defs>
     <use xlink:href="#CMR17-47" transform="scale(0.996264)"/>
     <use xlink:href="#CMR17-45" transform="translate(72.355346 0) scale(0.996264)"/>
     <use xlink:href="#CMR17-44" transform="translate(134.941646 0) scale(0.996264)"/>
    </g>
   </g>
  </g>
  <g id="legend_1">
   <g id="patch_11">
    <path d="M 176.194875 155.328381 
L 277.276153 155.328381 
Q 279.276153 155.328381 279.276153 153.328381 
L 279.276153 96.36043 
Q 279.276153 94.36043 277.276153 94.36043 
L 176.194875 94.36043 
Q 174.194875 94.36043 174.194875 96.36043 
L 174.194875 153.328381 
Q 174.194875 155.328381 176.194875 155.328381 
z
" style="fill: #ffffff; opacity: 0.8; stroke: #cccccc; stroke-linejoin: miter"/>
   </g>
   <g id="LineCollection_5">
    <path d="M 188.194875 107.970049 
L 188.194875 97.970049 
" style="fill: none; stroke: #13679e"/>
   </g>
   <g id="line2d_45">
    <path d="M 178.194875 102.970049 
L 198.194875 102.970049 
" style="fill: none; stroke: #13679e; stroke-width: 1.5; stroke-linecap: square"/>
   </g>
   <g id="line2d_46">
    <g>
     <use xlink:href="#m3cda53c4e5" x="188.194875" y="102.970049" style="fill-opacity: 0; stroke: #13679e"/>
    </g>
   </g>
   <g id="text_21">
    <!-- Testing-1 $R^2$ -->
    <g transform="translate(206.194875 106.470049) scale(0.1 -0.1)">
     <defs>
      <path id="CMR17-2d" d="M 1632 1254 
L 1632 1536 
L 26 1536 
L 26 1254 
L 1632 1254 
z
" transform="scale(0.015625)"/>
     </defs>
     <use xlink:href="#CMR17-54" transform="scale(0.996264)"/>
     <use xlink:href="#CMR17-65" transform="translate(58.702625 0) scale(0.996264)"/>
     <use xlink:href="#CMR17-73" transform="translate(99.188286 0) scale(0.996264)"/>
     <use xlink:href="#CMR17-74" transform="translate(134.989623 0) scale(0.996264)"/>
     <use xlink:href="#CMR17-69" transform="translate(170.270391 0) scale(0.996264)"/>
     <use xlink:href="#CMR17-6e" transform="translate(195.14145 0) scale(0.996264)"/>
     <use xlink:href="#CMR17-67" transform="translate(246.036819 0) scale(0.996264)"/>
     <use xlink:href="#CMR17-2d" transform="translate(291.727296 0) scale(0.996264)"/>
     <use xlink:href="#CMR17-31" transform="translate(321.803263 0) scale(0.996264)"/>
     <use xlink:href="#CMMI12-52" transform="translate(397.569706 0) scale(0.996264)"/>
     <use xlink:href="#CMR17-32" transform="translate(472.640668 36.153639) scale(0.697382)"/>
    </g>
   </g>
   <g id="LineCollection_6">
    <path d="M 188.194875 123.016846 
L 188.194875 113.016846 
" style="fill: none; stroke: #c00000"/>
   </g>
   <g id="line2d_47">
    <path d="M 178.194875 118.016846 
L 198.194875 118.016846 
" style="fill: none; stroke: #c00000; stroke-width: 1.5; stroke-linecap: square"/>
   </g>
   <g id="line2d_48">
    <g>
     <use xlink:href="#m62c7a522f3" x="188.194875" y="118.016846" style="fill-opacity: 0; stroke: #c00000"/>
    </g>
   </g>
   <g id="text_22">
    <!-- Testing-2 $R^2$ -->
    <g transform="translate(206.194875 121.516846) scale(0.1 -0.1)">
     <use xlink:href="#CMR17-54" transform="scale(0.996264)"/>
     <use xlink:href="#CMR17-65" transform="translate(58.702625 0) scale(0.996264)"/>
     <use xlink:href="#CMR17-73" transform="translate(99.188286 0) scale(0.996264)"/>
     <use xlink:href="#CMR17-74" transform="translate(134.989623 0) scale(0.996264)"/>
     <use xlink:href="#CMR17-69" transform="translate(170.270391 0) scale(0.996264)"/>
     <use xlink:href="#CMR17-6e" transform="translate(195.14145 0) scale(0.996264)"/>
     <use xlink:href="#CMR17-67" transform="translate(246.036819 0) scale(0.996264)"/>
     <use xlink:href="#CMR17-2d" transform="translate(291.727296 0) scale(0.996264)"/>
     <use xlink:href="#CMR17-32" transform="translate(321.803263 0) scale(0.996264)"/>
     <use xlink:href="#CMMI12-52" transform="translate(397.569706 0) scale(0.996264)"/>
     <use xlink:href="#CMR17-32" transform="translate(472.640668 36.153639) scale(0.697382)"/>
    </g>
   </g>
   <g id="LineCollection_7">
    <path d="M 188.194875 136.954024 
L 188.194875 126.954024 
" style="fill: none; stroke: #13679e"/>
   </g>
   <g id="line2d_49">
    <path d="M 178.194875 131.954024 
L 198.194875 131.954024 
" style="fill: none; stroke: #13679e; stroke-width: 1.5; stroke-linecap: square"/>
   </g>
   <g id="line2d_50">
    <g>
     <use xlink:href="#mc8b90fb96e" x="188.194875" y="131.954024" style="fill-opacity: 0; stroke: #13679e; stroke-linejoin: miter"/>
    </g>
   </g>
   <g id="text_23">
    <!-- Testing-1 $MAE$ -->
    <g transform="translate(206.194875 135.454024) scale(0.1 -0.1)">
     <use xlink:href="#CMR17-54" transform="scale(0.996264)"/>
     <use xlink:href="#CMR17-65" transform="translate(58.702625 0) scale(0.996264)"/>
     <use xlink:href="#CMR17-73" transform="translate(99.188286 0) scale(0.996264)"/>
     <use xlink:href="#CMR17-74" transform="translate(134.989623 0) scale(0.996264)"/>
     <use xlink:href="#CMR17-69" transform="translate(170.270391 0) scale(0.996264)"/>
     <use xlink:href="#CMR17-6e" transform="translate(195.14145 0) scale(0.996264)"/>
     <use xlink:href="#CMR17-67" transform="translate(246.036819 0) scale(0.996264)"/>
     <use xlink:href="#CMR17-2d" transform="translate(291.727296 0) scale(0.996264)"/>
     <use xlink:href="#CMR17-31" transform="translate(321.803263 0) scale(0.996264)"/>
     <use xlink:href="#CMMI12-4d" transform="translate(397.569706 0) scale(0.996264)"/>
     <use xlink:href="#CMMI12-41" transform="translate(502.349785 0) scale(0.996264)"/>
     <use xlink:href="#CMMI12-45" transform="translate(575.47767 0) scale(0.996264)"/>
    </g>
   </g>
   <g id="LineCollection_8">
    <path d="M 188.194875 150.891202 
L 188.194875 140.891202 
" style="fill: none; stroke: #c00000"/>
   </g>
   <g id="line2d_51">
    <path d="M 178.194875 145.891202 
L 198.194875 145.891202 
" style="fill: none; stroke: #c00000; stroke-width: 1.5; stroke-linecap: square"/>
   </g>
   <g id="line2d_52">
    <g>
     <use xlink:href="#m36de946737" x="188.194875" y="145.891202" style="fill-opacity: 0; stroke: #c00000; stroke-linejoin: miter"/>
    </g>
   </g>
   <g id="text_24">
    <!-- Testing-2 $MAE$ -->
    <g transform="translate(206.194875 149.391202) scale(0.1 -0.1)">
     <use xlink:href="#CMR17-54" transform="scale(0.996264)"/>
     <use xlink:href="#CMR17-65" transform="translate(58.702625 0) scale(0.996264)"/>
     <use xlink:href="#CMR17-73" transform="translate(99.188286 0) scale(0.996264)"/>
     <use xlink:href="#CMR17-74" transform="translate(134.989623 0) scale(0.996264)"/>
     <use xlink:href="#CMR17-69" transform="translate(170.270391 0) scale(0.996264)"/>
     <use xlink:href="#CMR17-6e" transform="translate(195.14145 0) scale(0.996264)"/>
     <use xlink:href="#CMR17-67" transform="translate(246.036819 0) scale(0.996264)"/>
     <use xlink:href="#CMR17-2d" transform="translate(291.727296 0) scale(0.996264)"/>
     <use xlink:href="#CMR17-32" transform="translate(321.803263 0) scale(0.996264)"/>
     <use xlink:href="#CMMI12-4d" transform="translate(397.569706 0) scale(0.996264)"/>
     <use xlink:href="#CMMI12-41" transform="translate(502.349785 0) scale(0.996264)"/>
     <use xlink:href="#CMMI12-45" transform="translate(575.47767 0) scale(0.996264)"/>
    </g>
   </g>
  </g>
 </g>
 <defs>
  <clipPath id="pdb60bec76a">
   <rect x="55.856153" y="29.804405" width="251.1" height="221.76"/>
  </clipPath>
 </defs>
</svg>
